<?xml version="1.0" encoding="utf-8" ?>
<svg xmlns="http://www.w3.org/2000/svg" xmlns:xlink="http://www.w3.org/1999/xlink" width="1024" height="1024">
	<path fill="white" d="M0 0L1024 0L1024 1024L0 1024L0 0Z"/>
	<path d="M163.63 274.028C160.664 242.107 170.492 216.29 190.644 191.895C198.524 182.357 207.563 174.518 217.435 167.159C223.317 162.774 229.236 158.418 235.551 154.665C261.394 139.302 293.707 129.917 323.532 127.187C338.751 125.794 354.119 125.497 369.376 124.541Q408.668 122.186 447.75 117.488C594.957 99.662 702.271 70.0663 847.744 129.125C873.477 139.572 902.396 151.061 923.818 168.992C946.548 188.017 958.875 212.778 961.442 242.287Q961.607 244.412 961.72 246.541Q961.833 248.67 961.894 250.801Q961.956 252.932 961.966 255.064Q961.975 257.196 961.934 259.327Q961.892 261.459 961.798 263.589Q961.705 265.718 961.559 267.845Q961.414 269.972 961.218 272.095Q961.021 274.218 960.773 276.335Q960.525 278.453 960.226 280.563Q959.926 282.674 959.576 284.777Q959.226 286.88 958.824 288.974Q958.423 291.068 957.971 293.151Q957.52 295.234 957.017 297.306Q956.515 299.378 955.963 301.437Q955.411 303.496 954.809 305.541Q954.206 307.587 953.555 309.616Q952.904 311.646 952.203 313.66Q951.503 315.673 950.754 317.669Q950.005 319.665 949.208 321.642Q948.41 323.62 947.565 325.577Q946.72 327.534 945.828 329.471Q944.936 331.407 943.998 333.321Q943.059 335.235 942.074 337.126Q941.089 339.016 940.059 340.883Q939.028 342.749 937.953 344.59Q936.878 346.431 935.758 348.245Q934.638 350.059 933.475 351.845Q932.312 353.632 931.106 355.39Q929.899 357.148 928.651 358.876Q927.402 360.604 926.112 362.301Q924.822 363.998 923.491 365.664Q922.161 367.329 920.79 368.962C905.719 386.886 886.989 400.779 866.014 411.015C861.076 413.425 855.818 415.973 850.496 417.368C850.814 456.18 851.175 495.158 852.481 533.949C871.164 533.875 888.416 544.981 901.246 557.638C927.624 583.657 941.878 624.275 942.039 661.04C942.145 685.195 936.795 711.099 925.818 732.739C913.391 757.235 892.971 780.94 876.348 802.974C861.911 822.109 848.193 842.247 831.215 859.257C800.381 890.151 750.049 916.788 705.661 916.528C668.55 916.311 629.223 898.346 603.404 871.918C579.837 847.796 568.699 822.25 560.436 790.032C546.162 789.374 531.603 789.917 517.292 789.854L443.177 789.391C433.34 790.366 422.731 789.596 412.815 789.569C407.744 794.196 403.787 800.45 399.363 805.719C392.898 813.419 385.942 820.801 378.883 827.958C369.818 837.149 359.701 845.349 349.756 853.557C319.501 878.528 284.819 905.285 248.367 920.218C212.449 934.933 173.769 935.826 137.829 920.611C114.004 910.524 94.6614 893.803 84.9814 869.408C73.8276 841.299 79.9339 805.096 87.1628 776.539C95.9081 741.991 114.744 712.339 130.194 680.645C135.514 669.733 139.837 658.262 144.078 646.893Q156.816 613.15 165.902 578.247C172.614 553.313 178.379 528.151 186.493 503.608C192.147 486.505 199.861 470.069 206.936 453.531C199.89 453.078 192.978 452.408 186.078 450.818Q184.942 450.55 183.813 450.254Q182.684 449.958 181.562 449.634Q180.441 449.311 179.327 448.959Q178.214 448.608 177.11 448.23Q176.006 447.851 174.911 447.446Q173.817 447.04 172.732 446.608Q171.648 446.176 170.575 445.717Q169.502 445.258 168.44 444.773Q167.378 444.288 166.329 443.777Q165.279 443.266 164.243 442.729Q163.206 442.192 162.183 441.63Q161.16 441.068 160.151 440.481Q159.142 439.894 158.148 439.282Q157.154 438.67 156.175 438.034Q155.197 437.398 154.234 436.738Q153.271 436.078 152.325 435.395Q151.378 434.711 150.449 434.005Q149.52 433.299 148.609 432.569Q147.697 431.84 146.804 431.089Q145.91 430.338 145.036 429.564Q144.161 428.791 143.306 427.997Q142.451 427.203 141.615 426.387Q140.78 425.572 139.965 424.737Q139.15 423.901 138.355 423.046Q137.561 422.191 136.788 421.316Q136.015 420.441 135.264 419.548Q134.512 418.655 133.783 417.743Q133.054 416.832 132.348 415.902Q131.641 414.973 130.958 414.027Q130.274 413.08 129.615 412.118Q128.955 411.155 128.319 410.176Q127.683 409.197 127.071 408.203C113.591 386.452 109.281 361.553 115.315 336.65C121.914 309.416 140.054 288.342 163.63 274.028Z"/>
	<path fill="#7AFFE3" d="M163.63 274.028C160.664 242.107 170.492 216.29 190.644 191.895C198.524 182.357 207.563 174.518 217.435 167.159C223.317 162.774 229.236 158.418 235.551 154.665C261.394 139.302 293.707 129.917 323.532 127.187C338.751 125.794 354.119 125.497 369.376 124.541Q408.668 122.186 447.75 117.488C594.957 99.662 702.271 70.0663 847.744 129.125C873.477 139.572 902.396 151.061 923.818 168.992C946.548 188.017 958.875 212.778 961.442 242.287Q961.607 244.412 961.72 246.541Q961.833 248.67 961.894 250.801Q961.956 252.932 961.966 255.064Q961.975 257.196 961.934 259.327Q961.892 261.459 961.798 263.589Q961.705 265.718 961.559 267.845Q961.414 269.972 961.218 272.095Q961.021 274.218 960.773 276.335Q960.525 278.453 960.226 280.563Q959.926 282.674 959.576 284.777Q959.226 286.88 958.824 288.974Q958.423 291.068 957.971 293.151Q957.52 295.234 957.017 297.306Q956.515 299.378 955.963 301.437Q955.411 303.496 954.809 305.541Q954.206 307.587 953.555 309.616Q952.904 311.646 952.203 313.66Q951.503 315.673 950.754 317.669Q950.005 319.665 949.208 321.642Q948.41 323.62 947.565 325.577Q946.72 327.534 945.828 329.471Q944.936 331.407 943.998 333.321Q943.059 335.235 942.074 337.126Q941.089 339.016 940.059 340.883Q939.028 342.749 937.953 344.59Q936.878 346.431 935.758 348.245Q934.638 350.059 933.475 351.845Q932.312 353.632 931.106 355.39Q929.899 357.148 928.651 358.876Q927.402 360.604 926.112 362.301Q924.822 363.998 923.491 365.664Q922.161 367.329 920.79 368.962C905.719 386.886 886.989 400.779 866.014 411.015C861.076 413.425 855.818 415.973 850.496 417.368L848.564 310.726L848.052 274.79C847.961 269.332 848.333 263.559 847.639 258.145C847.116 254.063 845.416 250.459 842.468 247.567C839.68 244.834 836.193 242.927 832.253 242.682C816.683 241.715 798.14 243.287 782.218 243.499Q722.672 244.093 663.138 245.477L452.461 248.767C418.685 249.285 384.798 249.27 351.039 250.259C346.059 250.404 340.694 250.988 337.136 254.907C334.369 257.953 334.429 261.627 334.571 265.468C330.164 265.516 318.895 264.693 315.224 266.193C314.418 267.193 314.332 267.199 314.324 268.469C316.168 270.293 318.494 270.224 320.969 270.216C351.077 270.121 381.202 268.888 411.31 268.428L692.417 264.434L777.711 263.102C790.973 262.874 804.839 261.524 818.025 262.577C821.101 262.823 823.684 264.093 825.852 266.293C828.431 268.91 829.101 271.116 829.602 274.71C830.962 284.464 829.947 298.859 830.105 309.259L831.56 380.452C831.758 393.855 831.133 410.929 832.438 423.855C829.538 424.203 826.635 424.597 823.861 425.561Q824.313 371.73 823.623 317.901C823.455 308.983 824.78 297.99 823.197 289.373C822.618 286.224 820.788 282.955 818.65 280.603C814.298 275.815 808.631 274.529 802.472 274.395C790.269 274.128 777.961 274.635 765.753 274.84L690.196 276.31L493.436 279.214L369.494 281.209C351.791 281.55 332.356 280.86 314.865 282.445C309.923 282.892 305.11 283.97 301.479 287.581C296.517 292.515 296.384 298.534 296.388 305.076C284.389 287.128 265.357 273.395 245.001 266.476C215.956 256.604 190.582 260.704 163.63 274.028Z"/>
	<path fill="#FFA07A" d="M206.936 453.531C236.547 453.571 263.423 444.215 284.603 423.041C286.989 420.655 289.071 418.112 291.095 415.417Q290.187 468.356 290.892 521.298L245.431 521.98C236.752 522.05 224.417 520.965 216.136 522.923C212.788 523.714 210.741 525.044 208.359 527.561C205.772 530.292 204.119 533.449 203.667 537.199C202.503 546.839 203.498 557.49 203.429 567.256L202.905 636.266Q202.256 676.666 201.157 717.056C200.709 733.772 199.651 750.853 200.517 767.546C200.823 773.449 201.548 780.368 206.207 784.557C209.216 787.263 213.683 787.885 217.597 788.237C223.515 788.769 229.637 788.353 235.577 788.249Q248.692 787.99 261.809 788.096Q327.312 788.109 392.811 788.864Q408.816 789.11 424.823 789.149C430.853 789.172 437.197 788.783 443.177 789.391C433.34 790.366 422.731 789.596 412.815 789.569C407.744 794.196 403.787 800.45 399.363 805.719C392.898 813.419 385.942 820.801 378.883 827.958C369.818 837.149 359.701 845.349 349.756 853.557C319.501 878.528 284.819 905.285 248.367 920.218C212.449 934.933 173.769 935.826 137.829 920.611C114.004 910.524 94.6614 893.803 84.9814 869.408C73.8276 841.299 79.9339 805.096 87.1628 776.539C95.9081 741.991 114.744 712.339 130.194 680.645C135.514 669.733 139.837 658.262 144.078 646.893Q156.816 613.15 165.902 578.247C172.614 553.313 178.379 528.151 186.493 503.608C192.147 486.505 199.861 470.069 206.936 453.531Z"/>
	<path fill="#7AFFE3" d="M852.481 533.949C871.164 533.875 888.416 544.981 901.246 557.638C927.624 583.657 941.878 624.275 942.039 661.04C942.145 685.195 936.795 711.099 925.818 732.739C913.391 757.235 892.971 780.94 876.348 802.974C861.911 822.109 848.193 842.247 831.215 859.257C800.381 890.151 750.049 916.788 705.661 916.528C668.55 916.311 629.223 898.346 603.404 871.918C579.837 847.796 568.699 822.25 560.436 790.032C571.94 790.802 583.789 790.333 595.333 790.368C600.083 790.382 605.34 789.94 610.006 790.786C613.065 791.341 615.656 792.817 618.116 794.674C624.017 799.128 629.379 804.858 634.723 809.965C650.462 825.005 665.421 841.284 681.849 855.543C686.572 859.642 693.03 863.955 699.554 863.347C703.743 862.956 707.047 860.803 708.829 856.953C713.847 846.114 707.193 803.738 711.999 797.635C716.952 794.551 744.954 796.139 752.494 796.122C760.257 796.104 770.186 796.432 775.973 790.329Q776.403 789.878 776.799 789.397Q777.194 788.915 777.552 788.406Q777.91 787.896 778.229 787.361Q778.548 786.826 778.826 786.268Q779.104 785.71 779.34 785.133Q779.575 784.557 779.767 783.964Q779.958 783.371 780.105 782.765Q780.251 782.16 780.352 781.545C782.251 769.896 781.082 748.119 781.037 735.48L779.911 628.533C791.269 628.465 810.512 629.881 820.857 628.013C824.1 627.428 827.204 626.295 829.915 624.399C835.067 620.796 837.601 615.663 838.642 609.635C842.374 608.716 846.087 608.061 848.95 605.243C851.022 603.204 852.144 600.858 852.722 598.031C854.182 590.879 853.409 582.721 853.302 575.429L852.481 533.949Z"/>
	<path fill="#7AFFE3" d="M824.492 537.397C826.586 537.028 828.734 536.943 830.811 536.542C832.365 536.241 832.644 535.845 833.431 534.522C833.007 551.47 833.205 568.479 833.307 585.434C833.356 593.428 834.464 602.853 833.044 610.641C832.492 613.673 830.723 616.58 828.508 618.689C826.47 620.629 824.11 621.917 821.387 622.61C812.679 624.828 789.856 623.482 779.668 623.407L779.626 611.662C788.785 611.64 809.269 612.723 816.986 610.841C818.888 610.377 820.252 609.709 821.609 608.288C823.225 606.595 824.189 604.555 824.584 602.26C825.957 594.278 824.857 584.952 824.724 576.812Q824.476 557.105 824.492 537.397Z"/>
	<path fill="white" d="M823.861 425.561C826.635 424.597 829.538 424.203 832.438 423.855C833.144 442.904 832.962 461.998 833.03 481.057L833.431 534.522C832.644 535.845 832.365 536.241 830.811 536.542C828.734 536.943 826.586 537.028 824.492 537.397L823.861 425.561Z"/>
	<path fill="#7AFFE3" d="M544.848 521.886C559.419 521.062 574.184 521.473 588.78 521.498L669.775 522.025L721.723 522.518C732.361 522.572 743.692 521.925 754.267 523.178C757.613 523.574 760.788 524.569 763.398 526.773C768.576 531.145 769.602 539.32 769.943 545.704C770.223 550.961 770.063 556.288 769.996 561.553L770.477 703.964L770.558 748.493C770.571 756.828 770.855 765.278 770.462 773.601C770.341 776.152 770.077 781.165 768.564 783.221C764.113 789.269 714.159 781.664 706.35 787.086C702.693 789.625 701.663 794.837 701.492 798.978C701.01 810.7 701.453 822.661 701.503 834.404C701.522 838.891 701.914 843.728 701.39 848.175C701.208 849.719 700.801 851.462 699.76 852.67C698.893 853.675 697.687 854.101 696.392 854.102C693.313 854.104 690.191 852.29 687.735 850.589C680.594 845.644 674.277 838.821 668.075 832.764Q654.332 819.394 640.756 805.855C632.251 797.348 622.772 785.295 610.986 781.464C601.431 778.358 571.805 779.929 559.932 779.99C527.771 780.103 495.557 779.55 463.392 779.329C458.571 779.621 453.597 779.312 448.753 779.317Q433.101 779.448 417.449 779.284L342.791 779.398Q298.967 779.569 255.148 778.917C244.29 778.741 233.006 779.435 222.209 778.518C219.273 778.269 216.67 777.73 214.388 775.759C209.112 771.201 208.03 762.139 207.72 755.515C207.051 741.204 207.71 726.582 207.697 712.238L207.514 627.954L207.427 570.182C207.406 560.442 206.775 550.24 207.572 540.543C207.884 536.749 208.41 533.511 211.112 530.658C213.21 528.443 215.504 527.018 218.54 526.592C230.043 524.982 244.004 525.703 255.737 525.543L318.163 524.496L473.686 522.698C497.41 522.411 521.127 522.53 544.848 521.886Z"/>
	<path fill="#FFA07A" d="M463.392 779.329C458.571 779.621 453.597 779.312 448.753 779.317Q433.101 779.448 417.449 779.284L342.791 779.398Q298.967 779.569 255.148 778.917C244.29 778.741 233.006 779.435 222.209 778.518C219.273 778.269 216.67 777.73 214.388 775.759C209.112 771.201 208.03 762.139 207.72 755.515C207.051 741.204 207.71 726.582 207.697 712.238L207.514 627.954L207.427 570.182C207.406 560.442 206.775 550.24 207.572 540.543C207.884 536.749 208.41 533.511 211.112 530.658C213.21 528.443 215.504 527.018 218.54 526.592C230.043 524.982 244.004 525.703 255.737 525.543L318.163 524.496L473.686 522.698C497.41 522.411 521.127 522.53 544.848 521.886C537.933 558.196 521.702 598.412 507.071 632.329C503.162 641.391 498.071 650.02 494.549 659.23C493.518 661.025 492.781 662.726 492.138 664.692C487.69 669.975 484.663 677.537 481.506 683.703Q475.161 696.391 467.954 708.61C459.514 722.621 450.823 736.88 441.585 750.365C434.973 760.017 427.743 769.297 421.27 779.032C426.368 779.001 460.958 778.031 463.392 779.329Z"/>
	<path d="M323.076 568.867C323.324 568.979 323.596 569.05 323.821 569.204C324.816 569.886 325.115 570.453 325.388 571.542C324.328 573.338 309.863 580.703 306.54 583.183Q305.707 583.812 304.89 584.462Q304.073 585.111 303.271 585.78Q302.47 586.449 301.685 587.138Q300.901 587.827 300.133 588.534Q299.366 589.241 298.616 589.967Q297.865 590.693 297.133 591.437Q296.401 592.182 295.687 592.943Q294.973 593.705 294.278 594.484Q293.583 595.263 292.907 596.058Q292.232 596.854 291.575 597.666Q290.919 598.477 290.283 599.305Q289.647 600.133 289.031 600.976Q288.415 601.818 287.82 602.676Q287.225 603.534 286.651 604.406Q286.077 605.278 285.524 606.163Q284.972 607.049 284.441 607.948Q283.91 608.847 283.402 609.758Q282.893 610.67 282.407 611.594Q281.92 612.517 281.457 613.453Q280.993 614.388 280.552 615.334Q280.112 616.281 279.694 617.237Q279.277 618.194 278.883 619.161Q278.489 620.128 278.119 621.104Q277.748 622.08 277.402 623.064Q277.055 624.049 276.733 625.042Q276.411 626.035 276.113 627.035Q275.815 628.036 275.542 629.043Q275.268 630.051 275.02 631.065Q274.771 632.078 274.547 633.098Q274.323 634.118 274.124 635.142Q273.925 636.167 273.751 637.196Q273.577 638.226 273.428 639.259Q273.273 640.313 273.143 641.371Q273.014 642.429 272.911 643.49Q272.808 644.55 272.732 645.613Q272.655 646.676 272.605 647.74Q272.555 648.805 272.531 649.87Q272.507 650.936 272.51 652.001Q272.512 653.067 272.541 654.132Q272.57 655.198 272.626 656.262Q272.681 657.326 272.763 658.388Q272.845 659.451 272.953 660.511Q273.062 661.571 273.196 662.628Q273.331 663.686 273.491 664.739Q273.652 665.792 273.839 666.842Q274.026 667.891 274.238 668.935Q274.451 669.979 274.69 671.018Q274.928 672.057 275.192 673.089Q275.457 674.121 275.746 675.147Q276.036 676.172 276.351 677.19Q276.667 678.208 277.007 679.218Q277.347 680.228 277.712 681.229Q278.078 682.23 278.468 683.222Q278.857 684.214 279.272 685.195Q279.686 686.177 280.125 687.148Q280.564 688.12 281.026 689.08Q281.489 690.04 281.975 690.988Q282.462 691.936 282.971 692.872Q283.481 693.808 284.014 694.731Q284.547 695.654 285.102 696.563Q285.657 697.473 286.235 698.368Q286.813 699.263 287.413 700.144Q288.013 701.025 288.635 701.89Q289.256 702.756 289.899 703.606C303.22 721.29 324.28 733.771 346.265 736.705C369.049 739.746 393.3 732.006 411.365 718.071C429.341 704.205 442.355 684.229 445.243 661.493C447.644 642.597 443.113 624.018 431.402 608.93C425.248 613.573 419.866 620.025 414.305 625.397Q389.662 648.993 364.437 671.966C356.906 678.762 349.008 686.889 340.567 692.457C338.357 693.914 336.263 694.934 333.561 694.97C330.274 695.013 326.659 693.416 324.377 691.064C318.564 685.073 319.469 670.746 319.478 662.84C319.485 656.563 318.925 623.008 322.332 620.089C322.964 619.547 323.285 619.718 324.052 619.723C325.065 620.341 325.962 620.877 326.64 621.881C326.794 622.111 326.94 622.346 327.09 622.578C326.829 633.286 326.912 677.333 330.726 684.812C331.402 686.138 331.938 686.261 333.317 686.653C334.681 686.422 335.709 686.058 336.856 685.26C344.961 679.622 352.569 671.751 359.946 665.123L402.312 627.573C411.329 619.535 420.931 610.036 430.721 603.079C430.895 602.956 431.072 602.835 431.248 602.713C438.229 608.252 443.42 616.971 446.995 625.008C455.358 643.811 454.728 668.093 447.246 687.093Q446.872 688.054 446.474 689.006Q446.076 689.958 445.655 690.899Q445.234 691.841 444.789 692.772Q444.344 693.702 443.876 694.622Q443.409 695.541 442.918 696.449Q442.428 697.356 441.915 698.251Q441.402 699.146 440.867 700.028Q440.332 700.91 439.775 701.778Q439.219 702.646 438.64 703.501Q438.062 704.355 437.463 705.195Q436.864 706.034 436.244 706.859Q435.624 707.683 434.983 708.492Q434.343 709.3 433.683 710.093Q433.023 710.885 432.343 711.661Q431.663 712.437 430.964 713.196Q430.266 713.955 429.548 714.696Q428.831 715.437 428.095 716.16Q427.359 716.883 426.606 717.587Q425.852 718.292 425.081 718.977Q424.311 719.663 423.523 720.329Q422.735 720.995 421.931 721.641Q421.128 722.288 420.308 722.914Q419.488 723.54 418.653 724.146Q417.818 724.751 416.968 725.336Q416.118 725.92 415.254 726.483Q414.39 727.047 413.512 727.588Q412.634 728.13 411.743 728.649Q410.852 729.169 409.948 729.666Q409.044 730.163 408.128 730.638Q407.212 731.112 406.285 731.564Q405.357 732.015 404.419 732.444Q403.481 732.872 402.532 733.277C379.382 743.227 348.744 745.407 325.231 736.007C304.554 727.741 284.939 710.585 276.116 689.86C266.396 667.027 264.517 642.106 273.861 618.843C283.212 595.563 300.104 578.692 323.076 568.867Z"/>
	<path fill="#FFA07A" d="M445.822 677.889C445.716 681.59 443.688 686.2 442.176 689.546C434.465 706.625 419.803 722.625 402.087 729.418C402.198 728.867 409.372 724.336 410.415 723.518C427.778 709.924 436.834 697.738 445.822 677.889Z"/>
	<path fill="white" d="M544.848 521.886C559.419 521.062 574.184 521.473 588.78 521.498L669.775 522.025L721.723 522.518C732.361 522.572 743.692 521.925 754.267 523.178C757.613 523.574 760.788 524.569 763.398 526.773C768.576 531.145 769.602 539.32 769.943 545.704C770.223 550.961 770.063 556.288 769.996 561.553C762.169 564.736 754.665 570.616 747.486 575.08C735.893 582.289 724.074 589.276 712.359 596.292C692.358 608.271 671.134 618.202 651.759 631.227C644.791 635.911 623.231 651.442 619.856 657.407L620.677 657.606C635.842 656.492 651.606 656.898 666.823 656.978C663.95 657.939 661.655 657.682 658.687 657.559C657.86 657.524 658.179 657.494 657.401 657.761C659.429 657.906 661.455 658.063 663.488 658.123L663.481 658.501Q661.332 658.766 659.173 658.933L636.25 659.443C632.354 659.521 628.115 659.897 624.255 659.541C619.805 660.183 614.724 659.673 610.21 659.643L551.862 660.224C543.17 660.32 509.359 661.684 503.715 660.246L503.451 659.805C502.035 658.915 500.133 658.799 498.496 658.531L494.549 659.23C498.071 650.02 503.162 641.391 507.071 632.329C521.702 598.412 537.933 558.196 544.848 521.886Z"/>
	<path d="M620.677 657.606C635.842 656.492 651.606 656.898 666.823 656.978C663.95 657.939 661.655 657.682 658.687 657.559C657.86 657.524 658.179 657.494 657.401 657.761C659.429 657.906 661.455 658.063 663.488 658.123L663.481 658.501Q661.332 658.766 659.173 658.933L636.25 659.443C632.354 659.521 628.115 659.897 624.255 659.541C619.805 660.183 614.724 659.673 610.21 659.643L551.862 660.224L549.681 658.516C573.058 658.181 596.5 658.39 619.856 657.407L620.677 657.606Z"/>
	<path d="M498.496 658.531L532.043 658.363C537.728 658.352 544.039 657.863 549.681 658.516L551.862 660.224C543.17 660.32 509.359 661.684 503.715 660.246L503.451 659.805C502.035 658.915 500.133 658.799 498.496 658.531Z"/>
	<path fill="white" d="M421.27 779.032C427.743 769.297 434.973 760.017 441.585 750.365C450.823 736.88 459.514 722.621 467.954 708.61Q475.16 696.391 481.506 683.703C484.663 677.537 487.69 669.975 492.138 664.692C495.341 668.2 497.916 668.552 502.549 668.751C513.481 669.221 524.626 668.434 535.583 668.343Q571.546 667.909 607.507 668.453C603.306 674.32 598.301 679.552 593.802 685.187C587.344 693.276 581.594 701.747 575.91 710.392C568.134 710.39 544.562 709.385 538.72 710.917Q524.411 711.177 510.1 711.245C504.994 711.258 499.449 710.751 494.405 711.498C492.663 711.756 490.327 712.264 489.038 713.577C488.191 714.44 488.056 715.327 488.219 716.491C488.491 718.431 490.484 720.188 492.113 721.037C497.06 723.614 525.143 721.351 532.846 721.916C545.107 722.975 558.023 722.156 570.357 722.078C567.484 731.561 563.939 740.951 562.132 750.709C560.302 760.598 560.383 770.051 559.932 779.99C527.771 780.103 495.557 779.55 463.392 779.329C460.958 778.031 426.368 779.001 421.27 779.032Z"/>
	<path d="M672.94 710.009L719.978 709.479C727.081 709.431 734.735 708.841 741.783 709.696C743.285 709.878 744.996 710.282 746.099 711.408C747.158 712.49 747.598 713.479 747.63 714.999C747.668 716.812 746.341 718.758 744.968 719.833C743.627 720.885 742.042 721.338 740.363 721.466C734.825 721.889 728.981 721.523 723.413 721.51L688.421 721.441L584.984 721.655Q566.942 721.501 548.9 721.642C543.658 721.681 538.045 721.33 532.846 721.916C525.143 721.351 497.06 723.614 492.113 721.037C490.484 720.188 488.491 718.431 488.219 716.491C488.056 715.327 488.191 714.44 489.038 713.577C490.327 712.264 492.663 711.756 494.405 711.498C499.449 710.751 504.994 711.258 510.1 711.245Q524.411 711.177 538.72 710.917C545.341 710.982 552.374 710.436 558.928 711.061L587.742 710.914C592.741 710.902 597.908 710.61 602.89 710.928C610.195 709.849 618.517 710.458 625.93 710.389L672.94 710.009Z"/>
	<path fill="#7AFFE3" d="M700.833 711.601C707.523 711.797 739.269 710.078 742.646 713.072C742.334 714.264 742.096 714.616 741.007 715.356C739.736 716.22 738.028 716.141 736.551 716.19C720.323 716.728 703.958 716.196 687.711 716.258L573.021 716.935C573.686 715.838 573.809 714.246 574.072 712.986C586.014 713.067 597.993 712.646 609.939 712.481C627.733 712.937 645.608 712.172 663.408 712.031C675.567 711.935 688.806 712.75 700.833 711.601Z"/>
	<path fill="white" d="M560.574 713.097Q567.323 713.078 574.072 712.986C573.809 714.246 573.686 715.838 573.021 716.935L523.786 717.208C516.485 717.226 507.49 718.214 500.47 716.64C499.953 715.65 500.096 715.841 500.37 714.856C503.256 712.894 550.761 714.369 559.618 713.229L560.574 713.097Z"/>
	<path d="M666.823 656.978C681.467 655.591 696.807 656.127 711.538 655.886C719.938 655.749 730.99 654.719 739.135 655.705Q739.796 655.782 740.44 655.947Q741.085 656.112 741.702 656.361Q742.319 656.611 742.896 656.94Q743.474 657.27 744.003 657.674C745.185 658.587 746.274 659.945 746.41 661.48C746.548 663.028 745.829 664.475 744.768 665.556C743.354 666.997 741.608 667.707 739.625 667.948C734.103 668.618 728.155 668.181 722.58 668.152L693.319 668.091C664.738 668.133 636.078 668.93 607.507 668.453Q571.546 667.909 535.583 668.343C524.626 668.434 513.481 669.221 502.549 668.751C497.916 668.552 495.341 668.2 492.138 664.692C492.781 662.726 493.518 661.025 494.549 659.23L498.496 658.531C500.133 658.799 502.035 658.915 503.451 659.805L503.715 660.246C509.359 661.684 543.17 660.32 551.862 660.224L610.21 659.643C614.724 659.673 619.805 660.183 624.255 659.541C628.115 659.897 632.354 659.521 636.25 659.443L659.173 658.933Q661.332 658.766 663.481 658.501L663.488 658.123C661.455 658.063 659.429 657.906 657.401 657.761C658.179 657.494 657.86 657.524 658.687 657.559C661.655 657.682 663.95 657.939 666.823 656.978Z"/>
	<path fill="#7AFFE3" d="M659.173 658.933C676.911 659.366 694.736 658.871 712.477 658.571C720.466 658.437 728.975 657.742 736.924 658.337C738.46 658.452 739.71 658.693 741.137 659.27L741.93 660.127C741.815 660.88 741.969 661.246 741.281 661.715C740.256 662.414 739.181 662.571 737.966 662.65C724.239 663.538 708.379 662.942 694.458 662.958L615.029 663.22C614.852 662.08 614.716 661.33 614.085 660.354Q612.156 659.954 610.21 659.643C614.724 659.673 619.805 660.183 624.255 659.541C628.115 659.897 632.354 659.521 636.25 659.443L659.173 658.933Z"/>
	<path fill="white" d="M551.862 660.224L610.21 659.643Q612.156 659.954 614.085 660.354C614.716 661.33 614.852 662.08 615.029 663.22Q574.66 663.577 534.29 663.529C528.438 663.54 508.378 664.469 503.823 663.201C503.214 661.964 503.5 661.546 503.715 660.246C509.359 661.684 543.17 660.32 551.862 660.224Z"/>
	<path fill="#7AFFE3" d="M307.188 324.859C303.06 315.807 297.493 306.69 301.486 296.395C302.857 292.86 305.575 289.509 309.122 288.013C315.485 285.329 371.38 285.808 382.897 285.599L604.978 282.364L728.797 280.242C753.216 279.76 777.722 278.717 802.138 278.89C805.135 278.912 807.978 279.219 810.781 280.37C814.401 281.857 816.879 285.023 818.263 288.624C819.004 290.552 819.017 292.602 819.078 294.637C819.449 306.999 819.073 319.44 819.112 331.811Q819.397 371.739 819.229 411.668C819.187 437.289 820.468 463.195 819.383 488.779L819.373 530.213C818.735 532.948 818.861 535.734 818.88 538.522C803.213 541.595 793.279 547.802 779.308 554.731C779.384 543.911 780.675 527.934 772.341 519.833C768.795 516.386 764.146 515.291 759.355 514.872C750.211 514.072 740.584 514.945 731.407 515.179L690.004 515.89Q617.674 517.483 545.327 517.547L407.401 516.961L358.483 516.685C348.063 516.585 327.504 517.674 318.436 514.611C317.444 513.531 317.121 513.113 316.925 511.662C315.503 501.102 316.467 487.887 316.424 477.065L316.017 414.502L315.847 368.195C315.8 359.841 316.267 350.985 315.121 342.719C314.638 339.232 313.657 336.203 312.246 332.99C311.882 325.948 311.564 303.661 308.427 297.902L307.317 297.168C306.122 297.56 306.017 297.675 305.216 298.654C304.989 307.235 306.657 316.233 307.188 324.859Z"/>
	<path fill="#FFA07A" d="M312.246 332.99C347.189 308.41 398.906 290.572 441.811 289.656C448.369 289.516 454.899 289.771 461.384 290.801C472.89 292.629 496.019 299.425 504.422 307.496Q503.337 308.017 502.266 308.567Q501.196 309.118 500.141 309.698Q499.086 310.277 498.047 310.885Q497.008 311.493 495.987 312.13Q494.965 312.766 493.961 313.43Q492.957 314.094 491.971 314.785Q490.986 315.477 490.02 316.194Q489.053 316.912 488.107 317.656Q487.161 318.4 486.235 319.17Q485.31 319.94 484.406 320.734Q483.502 321.529 482.619 322.348Q481.737 323.167 480.878 324.01Q480.019 324.852 479.183 325.718Q478.346 326.584 477.534 327.473Q476.722 328.362 475.935 329.272Q475.147 330.182 474.385 331.114Q473.623 332.046 472.886 332.998Q472.15 333.95 471.44 334.922Q470.729 335.893 470.046 336.884Q469.362 337.875 468.706 338.884Q468.05 339.894 467.422 340.92Q466.794 341.947 466.194 342.991Q465.594 344.034 465.023 345.094Q464.451 346.153 463.909 347.228Q463.367 348.303 462.855 349.392Q462.342 350.481 461.86 351.584Q461.377 352.687 460.925 353.802Q460.473 354.918 460.052 356.045Q459.63 357.173 459.239 358.311Q458.849 359.45 458.49 360.599Q458.13 361.748 457.803 362.906Q457.475 364.064 457.179 365.231Q456.883 366.398 456.619 367.572Q456.355 368.747 456.123 369.928Q455.892 371.109 455.692 372.296Q455.493 373.483 455.326 374.675Q455.159 375.867 455.025 377.063Q454.891 378.26 454.789 379.459Q454.688 380.658 454.619 381.86Q454.55 383.062 454.514 384.265Q454.479 385.468 454.476 386.672Q454.473 387.876 454.503 389.079Q454.533 390.282 454.596 391.484Q454.658 392.686 454.754 393.886Q454.85 395.086 454.978 396.283Q455.107 397.48 455.268 398.673Q455.429 399.865 455.623 401.053Q455.816 402.241 456.042 403.424Q456.268 404.606 456.527 405.782Q456.785 406.957 457.075 408.125Q457.366 409.294 457.688 410.453Q458.01 411.613 458.364 412.764Q458.717 413.914 459.102 415.055Q459.487 416.195 459.903 417.325Q460.32 418.454 460.766 419.572Q461.213 420.69 461.69 421.795Q462.167 422.9 462.675 423.991Q463.182 425.083 463.719 426.16Q464.255 427.238 464.822 428.3Q465.388 429.362 465.982 430.409Q466.577 431.455 467.201 432.485Q467.824 433.515 468.475 434.527Q469.126 435.539 469.805 436.534Q470.483 437.528 471.189 438.503Q472.021 439.653 472.889 440.775Q473.758 441.898 474.662 442.991Q475.566 444.085 476.505 445.149Q477.444 446.213 478.416 447.247Q479.389 448.28 480.395 449.282Q481.4 450.283 482.437 451.251Q483.475 452.22 484.542 453.155Q485.61 454.089 486.708 454.989Q487.805 455.889 488.931 456.753Q490.057 457.616 491.21 458.443Q492.363 459.271 493.542 460.06Q494.721 460.85 495.925 461.601Q497.129 462.352 498.357 463.064Q499.585 463.776 500.834 464.448Q502.084 465.12 503.355 465.752Q504.626 466.383 505.917 466.973Q507.207 467.563 508.516 468.112Q509.825 468.66 511.151 469.166Q512.477 469.672 513.818 470.134Q515.16 470.597 516.516 471.017Q517.871 471.436 519.24 471.811Q520.608 472.187 521.988 472.518Q523.368 472.849 524.758 473.136Q526.148 473.422 527.546 473.664Q528.945 473.906 530.35 474.102Q531.756 474.299 533.167 474.45Q534.578 474.601 535.993 474.706Q537.408 474.812 538.826 474.871Q540.244 474.931 541.663 474.946Q543.082 474.96 544.501 474.928Q545.919 474.897 547.336 474.819Q548.753 474.742 550.167 474.619C548.975 475.673 548.986 476.424 548.936 477.997C548.721 484.659 549.202 491.173 548.599 497.867C548 504.511 546.386 510.978 545.327 517.547L407.401 516.961L358.483 516.685C348.063 516.585 327.504 517.674 318.436 514.611C317.444 513.531 317.121 513.113 316.925 511.662C315.503 501.102 316.467 487.887 316.424 477.065L316.017 414.502L315.847 368.195C315.8 359.841 316.267 350.985 315.121 342.719C314.638 339.232 313.657 336.203 312.246 332.99Z"/>
	<path fill="#FFA07A" d="M316.017 414.502C323.294 417.356 331.031 419.337 338.55 421.47C370.72 430.597 402.306 436.67 435.71 438.859C447.133 439.608 459.874 440.278 471.189 438.503Q472.021 439.653 472.889 440.775Q473.758 441.898 474.662 442.991Q475.566 444.085 476.505 445.149Q477.444 446.213 478.416 447.247Q479.389 448.28 480.395 449.282Q481.4 450.283 482.437 451.251Q483.475 452.22 484.542 453.155Q485.61 454.089 486.708 454.989Q487.805 455.889 488.931 456.753Q490.057 457.616 491.21 458.443Q492.363 459.271 493.542 460.06Q494.721 460.85 495.925 461.601Q497.129 462.352 498.357 463.064Q499.585 463.776 500.834 464.448Q502.084 465.12 503.355 465.752Q504.626 466.383 505.917 466.973Q507.207 467.563 508.516 468.112Q509.825 468.66 511.151 469.166Q512.477 469.672 513.818 470.134Q515.16 470.597 516.516 471.017Q517.871 471.436 519.24 471.811Q520.608 472.187 521.988 472.518Q523.368 472.849 524.758 473.136Q526.148 473.422 527.546 473.664Q528.945 473.906 530.35 474.102Q531.756 474.299 533.167 474.45Q534.578 474.601 535.993 474.706Q537.408 474.812 538.826 474.871Q540.244 474.931 541.663 474.946Q543.082 474.96 544.501 474.928Q545.919 474.897 547.336 474.819Q548.753 474.742 550.167 474.619C548.975 475.673 548.986 476.424 548.936 477.997C548.721 484.659 549.202 491.173 548.599 497.867C548 504.511 546.386 510.978 545.327 517.547L407.401 516.961L358.483 516.685C348.063 516.585 327.504 517.674 318.436 514.611C317.444 513.531 317.121 513.113 316.925 511.662C315.503 501.102 316.467 487.887 316.424 477.065L316.017 414.502Z"/>
	<path d="M504.422 307.496Q505.973 306.751 507.552 306.068Q509.131 305.384 510.735 304.763Q512.34 304.141 513.967 303.583Q515.595 303.025 517.243 302.531Q518.891 302.036 520.557 301.607Q522.223 301.177 523.904 300.813Q525.586 300.449 527.28 300.151Q528.975 299.853 530.68 299.621Q532.385 299.39 534.097 299.225Q535.81 299.06 537.528 298.962Q539.245 298.864 540.966 298.833Q542.686 298.802 544.406 298.839Q546.126 298.875 547.844 298.979Q549.561 299.082 551.273 299.253Q552.985 299.424 554.689 299.661Q556.393 299.898 558.087 300.202Q559.78 300.506 561.461 300.875Q563.141 301.245 564.806 301.68Q566.47 302.115 568.117 302.615Q569.763 303.114 571.389 303.678Q573.014 304.242 574.617 304.868Q576.219 305.495 577.796 306.184Q579.372 306.872 580.921 307.622Q582.469 308.372 583.987 309.182Q585.505 309.992 586.991 310.86Q588.476 311.729 589.926 312.654Q591.377 313.58 592.79 314.562Q594.203 315.544 595.576 316.58Q596.95 317.616 598.282 318.705Q599.614 319.794 600.902 320.934Q602.191 322.074 603.434 323.264Q604.677 324.454 605.872 325.691Q607.068 326.928 608.214 328.211Q609.36 329.494 610.455 330.821Q611.551 332.148 612.593 333.517Q613.636 334.885 614.624 336.294Q615.613 337.702 616.545 339.148Q617.478 340.594 618.354 342.075Q619.229 343.556 620.046 345.07Q620.863 346.584 621.62 348.129Q622.377 349.674 623.073 351.248Q623.77 352.821 624.404 354.42Q625.038 356.02 625.609 357.642Q626.181 359.265 626.688 360.909Q627.196 362.553 627.639 364.216Q628.081 365.878 628.459 367.557Q628.837 369.236 629.148 370.928Q629.46 372.62 629.706 374.323Q629.951 376.026 630.13 377.737Q630.308 379.448 630.42 381.165Q630.532 382.882 630.576 384.602Q630.621 386.322 630.598 388.042Q630.576 389.762 630.486 391.48Q630.396 393.199 630.239 394.912Q630.083 396.625 629.859 398.331Q629.635 400.037 629.345 401.733Q629.055 403.429 628.699 405.112Q628.343 406.796 627.921 408.464Q627.5 410.132 627.013 411.782Q626.527 413.432 625.976 415.062Q625.426 416.693 624.812 418.3Q624.198 419.907 623.522 421.489Q622.846 423.071 622.109 424.626Q621.371 426.18 620.574 427.705Q619.935 428.927 619.258 430.128Q618.58 431.33 617.866 432.509Q617.151 433.689 616.4 434.845Q615.649 436.002 614.862 437.134Q614.076 438.267 613.254 439.374Q612.432 440.482 611.575 441.563Q610.719 442.644 609.83 443.697Q608.94 444.751 608.018 445.776Q607.096 446.802 606.142 447.798Q605.188 448.794 604.203 449.759Q603.219 450.725 602.204 451.659Q601.19 452.593 600.147 453.495Q599.104 454.398 598.033 455.267Q596.962 456.135 595.865 456.971Q594.767 457.806 593.644 458.606Q592.521 459.406 591.373 460.171Q590.226 460.935 589.055 461.664Q587.884 462.392 586.69 463.084Q585.497 463.775 584.283 464.429Q583.069 465.082 581.834 465.698Q580.6 466.313 579.347 466.889Q578.094 467.466 576.824 468.002Q575.554 468.539 574.268 469.036Q572.981 469.533 571.68 469.989Q570.378 470.446 569.063 470.861Q567.748 471.276 566.421 471.65Q565.094 472.024 563.755 472.356Q562.417 472.689 561.068 472.979Q559.72 473.269 558.364 473.517Q557.007 473.764 555.643 473.97Q554.28 474.175 552.91 474.337Q551.541 474.5 550.167 474.619Q548.753 474.742 547.336 474.819Q545.919 474.897 544.501 474.928Q543.082 474.96 541.663 474.946Q540.244 474.931 538.826 474.871Q537.408 474.812 535.993 474.706Q534.578 474.601 533.167 474.45Q531.756 474.299 530.35 474.102Q528.945 473.906 527.546 473.664Q526.148 473.422 524.758 473.136Q523.368 472.849 521.988 472.518Q520.608 472.187 519.24 471.811Q517.871 471.436 516.516 471.017Q515.16 470.597 513.818 470.134Q512.477 469.672 511.151 469.166Q509.825 468.66 508.516 468.112Q507.207 467.563 505.917 466.973Q504.626 466.383 503.355 465.752Q502.084 465.12 500.834 464.448Q499.585 463.776 498.357 463.064Q497.129 462.352 495.925 461.601Q494.721 460.85 493.542 460.06Q492.363 459.271 491.21 458.443Q490.057 457.616 488.931 456.753Q487.805 455.889 486.708 454.989Q485.61 454.089 484.542 453.155Q483.474 452.22 482.437 451.251Q481.4 450.283 480.395 449.282Q479.389 448.28 478.416 447.247Q477.444 446.213 476.505 445.149Q475.566 444.085 474.662 442.991Q473.758 441.898 472.889 440.775Q472.021 439.653 471.189 438.503Q470.483 437.528 469.805 436.534Q469.126 435.539 468.475 434.527Q467.824 433.515 467.201 432.485Q466.577 431.455 465.982 430.409Q465.388 429.362 464.821 428.3Q464.255 427.238 463.719 426.16Q463.182 425.083 462.675 423.991Q462.167 422.9 461.69 421.795Q461.213 420.69 460.766 419.572Q460.32 418.454 459.903 417.325Q459.487 416.195 459.102 415.055Q458.717 413.914 458.364 412.764Q458.01 411.613 457.688 410.453Q457.366 409.294 457.075 408.125Q456.785 406.957 456.527 405.782Q456.268 404.606 456.042 403.424Q455.816 402.241 455.623 401.053Q455.429 399.865 455.268 398.673Q455.107 397.48 454.978 396.283Q454.85 395.086 454.754 393.886Q454.658 392.686 454.596 391.484Q454.533 390.282 454.503 389.079Q454.473 387.875 454.476 386.672Q454.479 385.468 454.514 384.265Q454.55 383.062 454.619 381.86Q454.688 380.658 454.789 379.459Q454.891 378.26 455.025 377.063Q455.159 375.867 455.326 374.675Q455.493 373.483 455.692 372.296Q455.892 371.109 456.123 369.928Q456.355 368.747 456.619 367.572Q456.883 366.398 457.179 365.231Q457.475 364.064 457.803 362.906Q458.13 361.748 458.49 360.599Q458.849 359.45 459.24 358.311Q459.63 357.173 460.052 356.045Q460.473 354.918 460.925 353.802Q461.377 352.687 461.86 351.584Q462.342 350.481 462.855 349.392Q463.367 348.303 463.909 347.228Q464.451 346.153 465.023 345.094Q465.594 344.034 466.194 342.991Q466.794 341.947 467.422 340.92Q468.05 339.894 468.706 338.884Q469.362 337.875 470.046 336.884Q470.729 335.893 471.439 334.921Q472.15 333.95 472.886 332.998Q473.623 332.046 474.385 331.114Q475.147 330.182 475.935 329.272Q476.722 328.362 477.534 327.473Q478.346 326.584 479.182 325.718Q480.018 324.852 480.878 324.01Q481.737 323.167 482.619 322.348Q483.502 321.529 484.406 320.734Q485.31 319.94 486.235 319.17Q487.161 318.4 488.107 317.656Q489.053 316.912 490.02 316.194Q490.986 315.477 491.971 314.785Q492.957 314.094 493.961 313.43Q494.965 312.766 495.987 312.13Q497.008 311.493 498.047 310.885Q499.086 310.277 500.141 309.698Q501.196 309.118 502.266 308.567Q503.337 308.017 504.422 307.496Z"/>
	<path d="M509.921 310.367Q511.418 309.727 512.94 309.147Q514.461 308.567 516.004 308.046Q517.547 307.526 519.109 307.066Q520.671 306.606 522.25 306.208Q523.829 305.81 525.422 305.473Q527.016 305.137 528.621 304.863Q530.226 304.59 531.841 304.379Q533.455 304.168 535.077 304.021Q536.699 303.874 538.325 303.79Q539.951 303.706 541.579 303.686Q543.208 303.666 544.835 303.709Q546.463 303.753 548.088 303.86Q549.713 303.967 551.332 304.138Q552.952 304.308 554.563 304.542Q556.175 304.776 557.776 305.073Q559.377 305.37 560.965 305.729Q562.553 306.088 564.126 306.509Q565.699 306.93 567.255 307.412Q568.81 307.894 570.345 308.437Q571.881 308.979 573.393 309.581Q574.906 310.184 576.395 310.845Q577.883 311.506 579.344 312.224Q580.805 312.943 582.237 313.718Q583.669 314.493 585.07 315.324Q586.47 316.155 587.837 317.04Q589.204 317.924 590.536 318.862Q591.867 319.8 593.16 320.789Q594.454 321.777 595.708 322.816Q596.962 323.855 598.174 324.942Q599.387 326.029 600.556 327.163Q601.725 328.296 602.849 329.475Q603.972 330.653 605.049 331.875Q606.126 333.096 607.154 334.359Q608.182 335.622 609.16 336.924Q610.138 338.226 611.064 339.565Q611.991 340.904 612.864 342.279Q613.737 343.653 614.556 345.061Q615.375 346.468 616.138 347.907Q616.901 349.345 617.607 350.812Q618.313 352.28 618.962 353.773Q619.61 355.267 620.199 356.785Q620.789 358.303 621.318 359.843Q621.848 361.383 622.317 362.942Q622.786 364.501 623.194 366.078Q623.601 367.654 623.947 369.246Q624.293 370.837 624.576 372.44Q624.859 374.044 625.079 375.657Q625.299 377.271 625.456 378.892Q625.613 380.512 625.707 382.138Q625.8 383.764 625.83 385.392Q625.86 387.02 625.826 388.648Q625.792 390.276 625.694 391.901Q625.597 393.527 625.435 395.147Q625.274 396.767 625.05 398.38Q624.826 399.993 624.539 401.596Q624.251 403.199 623.902 404.789Q623.552 406.379 623.14 407.955Q622.729 409.53 622.256 411.089Q621.783 412.647 621.249 414.185Q620.716 415.724 620.122 417.24Q619.529 418.757 618.877 420.249Q618.225 421.741 617.515 423.206Q616.805 424.672 616.038 426.108Q615.271 427.545 614.449 428.95Q613.812 430.038 613.143 431.106Q612.474 432.174 611.773 433.221Q611.072 434.268 610.339 435.294Q609.607 436.32 608.844 437.322Q608.08 438.325 607.287 439.305Q606.494 440.284 605.671 441.239Q604.848 442.194 603.997 443.123Q603.146 444.053 602.267 444.956Q601.388 445.86 600.483 446.736Q599.577 447.612 598.645 448.461Q597.713 449.309 596.756 450.129Q595.799 450.949 594.817 451.74Q593.835 452.53 592.83 453.29Q591.825 454.051 590.798 454.781Q589.77 455.51 588.721 456.208Q587.672 456.907 586.602 457.573Q585.532 458.239 584.442 458.872Q583.353 459.506 582.244 460.106Q581.136 460.706 580.01 461.272Q578.884 461.839 577.742 462.371Q576.599 462.903 575.441 463.4Q574.283 463.897 573.11 464.359Q571.938 464.821 570.752 465.247Q569.565 465.673 568.367 466.063Q567.169 466.453 565.959 466.807Q564.749 467.16 563.529 467.477Q562.309 467.794 561.08 468.073Q559.852 468.353 558.615 468.595Q557.378 468.838 556.134 469.043Q554.891 469.247 553.642 469.414Q552.392 469.582 551.139 469.711Q549.885 469.84 548.628 469.931Q547.388 470.021 546.146 470.074Q544.904 470.126 543.661 470.142Q542.418 470.158 541.175 470.136Q539.932 470.115 538.69 470.057Q537.449 469.998 536.209 469.902Q534.97 469.807 533.734 469.674Q532.498 469.542 531.266 469.372Q530.035 469.203 528.809 468.997Q527.583 468.791 526.364 468.548Q525.144 468.305 523.933 468.026Q522.722 467.747 521.519 467.432Q520.316 467.117 519.124 466.767Q517.931 466.416 516.75 466.03Q515.568 465.643 514.398 465.222Q513.229 464.801 512.073 464.345Q510.916 463.889 509.774 463.398Q508.631 462.908 507.504 462.383Q506.377 461.859 505.266 461.301Q504.155 460.744 503.061 460.153Q501.968 459.562 500.892 458.939Q499.816 458.316 498.759 457.661Q497.703 457.006 496.666 456.32Q495.63 455.634 494.614 454.917Q493.598 454.2 492.605 453.454Q491.611 452.707 490.64 451.931Q489.669 451.154 488.721 450.35Q487.774 449.545 486.851 448.712Q485.928 447.879 485.03 447.019Q484.133 446.159 483.261 445.273Q482.389 444.386 481.545 443.474Q480.7 442.562 479.883 441.626Q479.066 440.689 478.277 439.728Q477.512 438.796 476.774 437.842Q476.036 436.888 475.326 435.913Q474.616 434.938 473.934 433.943Q473.253 432.948 472.601 431.933Q471.948 430.919 471.326 429.886Q470.703 428.853 470.11 427.803Q469.518 426.752 468.956 425.685Q468.394 424.618 467.864 423.535Q467.333 422.452 466.834 421.354Q466.335 420.256 465.868 419.144Q465.401 418.032 464.966 416.907Q464.532 415.782 464.13 414.645Q463.728 413.507 463.359 412.359Q462.991 411.211 462.655 410.052Q462.32 408.894 462.019 407.726Q461.717 406.558 461.449 405.382Q461.182 404.206 460.948 403.023Q460.715 401.84 460.516 400.65Q460.317 399.461 460.152 398.266Q459.988 397.071 459.858 395.872Q459.728 394.673 459.633 393.471Q459.538 392.268 459.478 391.064Q459.418 389.859 459.393 388.653Q459.367 387.448 459.377 386.242Q459.387 385.036 459.432 383.83Q459.476 382.625 459.556 381.422Q459.635 380.218 459.75 379.018Q459.864 377.817 460.013 376.62Q460.163 375.423 460.346 374.231Q460.53 373.039 460.748 371.853Q460.966 370.667 461.219 369.488Q461.471 368.309 461.758 367.137Q462.045 365.965 462.365 364.803Q462.685 363.64 463.039 362.487Q463.393 361.334 463.78 360.192Q464.168 359.05 464.588 357.919Q465.008 356.788 465.461 355.671Q465.913 354.553 466.398 353.448Q466.883 352.344 467.4 351.254Q467.917 350.165 468.465 349.09Q469.013 348.016 469.592 346.958Q470.171 345.9 470.78 344.859Q471.39 343.818 472.029 342.795Q472.668 341.773 473.337 340.769Q474.006 339.765 474.703 338.781Q475.4 337.797 476.126 336.834Q476.852 335.871 477.605 334.929Q478.358 333.987 479.139 333.067Q479.919 332.147 480.725 331.251Q481.532 330.354 482.364 329.481Q483.196 328.608 484.054 327.76Q484.911 326.911 485.792 326.088Q486.674 325.265 487.578 324.467Q488.483 323.67 489.411 322.899Q490.338 322.128 491.288 321.384Q492.238 320.641 493.208 319.925Q494.179 319.209 495.17 318.522Q496.161 317.834 497.171 317.176Q498.182 316.518 499.211 315.889Q500.24 315.26 501.287 314.661Q502.334 314.062 503.398 313.494Q504.462 312.926 505.542 312.389Q506.622 311.852 507.717 311.346Q508.812 310.841 509.921 310.367Z"/>
	<path fill="#7AFFE3" d="M509.921 310.367Q511.418 309.727 512.94 309.147Q514.461 308.567 516.004 308.046Q517.547 307.526 519.109 307.066Q520.671 306.606 522.25 306.208Q523.829 305.81 525.422 305.473Q527.016 305.137 528.621 304.863Q530.226 304.59 531.841 304.379Q533.455 304.168 535.077 304.021Q536.699 303.874 538.325 303.79Q539.951 303.706 541.579 303.686Q543.208 303.666 544.835 303.709Q546.463 303.753 548.088 303.86Q549.713 303.967 551.332 304.138Q552.952 304.308 554.563 304.542Q556.175 304.776 557.776 305.073Q559.377 305.37 560.965 305.729Q562.553 306.088 564.126 306.509Q565.699 306.93 567.255 307.412Q568.81 307.894 570.345 308.437Q571.881 308.979 573.393 309.581Q574.906 310.184 576.395 310.845Q577.883 311.506 579.344 312.224Q580.805 312.943 582.237 313.718Q583.669 314.493 585.07 315.324Q586.47 316.155 587.837 317.04Q589.204 317.924 590.536 318.862Q591.867 319.8 593.16 320.789Q594.454 321.777 595.708 322.816Q596.962 323.855 598.174 324.942Q599.387 326.029 600.556 327.163Q601.725 328.296 602.849 329.475Q603.972 330.653 605.049 331.875Q606.126 333.096 607.154 334.359Q608.182 335.622 609.16 336.924Q610.138 338.226 611.064 339.565Q611.991 340.904 612.864 342.279Q613.737 343.653 614.556 345.061Q615.375 346.468 616.138 347.907Q616.901 349.345 617.607 350.812Q618.313 352.28 618.962 353.773Q619.61 355.267 620.199 356.785Q620.789 358.303 621.318 359.843Q621.848 361.383 622.317 362.942Q622.786 364.501 623.194 366.078Q623.601 367.654 623.947 369.246Q624.293 370.837 624.576 372.44Q624.859 374.044 625.079 375.657Q625.299 377.271 625.456 378.892Q625.613 380.512 625.707 382.138Q625.8 383.764 625.83 385.392Q625.86 387.02 625.826 388.648Q625.792 390.276 625.694 391.901Q625.597 393.527 625.435 395.147Q625.274 396.767 625.05 398.38Q624.826 399.993 624.539 401.596Q624.251 403.199 623.902 404.789Q623.552 406.379 623.14 407.955Q622.729 409.53 622.256 411.089Q621.783 412.647 621.249 414.185Q620.716 415.724 620.122 417.24Q619.529 418.757 618.877 420.249Q618.225 421.741 617.515 423.206Q616.805 424.672 616.038 426.108Q615.271 427.545 614.449 428.95C608.926 426.742 598.523 429.907 592.281 429.226Q593.153 428.183 593.983 427.107Q594.812 426.03 595.598 424.92Q596.383 423.811 597.123 422.67Q597.863 421.53 598.556 420.361Q599.25 419.192 599.895 417.995Q600.541 416.799 601.138 415.578Q601.734 414.356 602.281 413.112Q602.829 411.868 603.325 410.602Q603.821 409.337 604.266 408.052Q604.711 406.768 605.104 405.466Q605.497 404.165 605.837 402.849Q606.177 401.533 606.463 400.204Q606.75 398.875 606.982 397.536Q607.215 396.197 607.393 394.849Q607.572 393.501 607.696 392.148Q607.82 390.794 607.889 389.437Q607.958 388.079 607.973 386.72Q607.987 385.36 607.946 384.002Q607.906 382.643 607.811 381.287Q607.715 379.931 607.566 378.58Q607.416 377.229 607.211 375.885Q607.007 374.541 606.749 373.207Q606.49 371.872 606.178 370.549Q605.866 369.226 605.501 367.917Q605.136 366.607 604.719 365.314Q604.301 364.02 603.831 362.744Q603.362 361.469 602.841 360.213Q602.321 358.957 601.75 357.723Q601.179 356.49 600.559 355.28Q599.939 354.071 599.271 352.887Q598.602 351.703 597.886 350.548Q597.171 349.392 596.409 348.266Q595.647 347.14 594.841 346.046Q594.034 344.952 593.184 343.891Q592.334 342.83 591.442 341.805Q590.55 340.779 589.617 339.79Q588.685 338.801 587.713 337.851Q586.741 336.901 585.731 335.99Q584.722 335.08 583.676 334.211Q582.631 333.342 581.552 332.516Q580.472 331.69 579.36 330.908Q578.248 330.126 577.105 329.39Q575.963 328.654 574.791 327.964Q573.62 327.275 572.422 326.633Q571.223 325.991 570 325.398Q568.777 324.806 567.531 324.263Q566.284 323.719 565.017 323.227Q563.75 322.735 562.465 322.294Q561.179 321.853 559.876 321.465Q558.573 321.076 557.256 320.741Q555.939 320.405 554.609 320.123Q553.28 319.84 551.94 319.612Q550.6 319.384 549.251 319.209Q547.903 319.035 546.549 318.916Q545.195 318.796 543.837 318.731Q542.48 318.666 541.12 318.656Q539.761 318.646 538.402 318.691Q537.044 318.736 535.688 318.836Q534.333 318.935 532.982 319.09Q531.631 319.244 530.288 319.452Q528.945 319.661 527.611 319.924Q526.278 320.186 524.956 320.502Q523.634 320.819 522.325 321.188Q521.017 321.557 519.725 321.979C517.46 317.756 512.574 314.624 509.921 310.367Z"/>
	<path fill="#FFA07A" d="M478.277 439.728Q477.512 438.796 476.774 437.842Q476.036 436.888 475.326 435.913Q474.616 434.938 473.934 433.943Q473.253 432.948 472.601 431.933Q471.948 430.919 471.326 429.886Q470.703 428.853 470.11 427.803Q469.518 426.752 468.956 425.685Q468.394 424.618 467.864 423.535Q467.333 422.452 466.834 421.354Q466.335 420.256 465.868 419.144Q465.401 418.032 464.966 416.907Q464.532 415.782 464.13 414.645Q463.728 413.507 463.359 412.359Q462.991 411.211 462.655 410.052Q462.32 408.894 462.019 407.726Q461.717 406.558 461.449 405.382Q461.182 404.206 460.948 403.023Q460.715 401.84 460.516 400.65Q460.317 399.461 460.152 398.266Q459.988 397.071 459.858 395.872Q459.728 394.673 459.633 393.471Q459.538 392.268 459.478 391.064Q459.418 389.859 459.393 388.653Q459.367 387.448 459.377 386.242Q459.387 385.036 459.432 383.83Q459.476 382.625 459.556 381.422Q459.635 380.218 459.75 379.018Q459.864 377.817 460.013 376.62Q460.163 375.423 460.346 374.231Q460.53 373.039 460.748 371.853Q460.966 370.667 461.219 369.488Q461.471 368.309 461.758 367.137Q462.045 365.965 462.365 364.803Q462.685 363.64 463.039 362.487Q463.393 361.334 463.78 360.192Q464.168 359.05 464.588 357.919Q465.008 356.788 465.461 355.671Q465.913 354.553 466.398 353.448Q466.883 352.344 467.4 351.254Q467.917 350.165 468.465 349.09Q469.013 348.016 469.592 346.958Q470.171 345.9 470.78 344.859Q471.39 343.818 472.029 342.795Q472.668 341.773 473.337 340.769Q474.006 339.765 474.703 338.781Q475.4 337.797 476.126 336.834Q476.852 335.871 477.605 334.929Q478.358 333.987 479.139 333.067Q479.919 332.147 480.725 331.251Q481.532 330.354 482.364 329.481Q483.196 328.608 484.054 327.76Q484.911 326.911 485.792 326.088Q486.674 325.265 487.578 324.467Q488.483 323.67 489.411 322.899Q490.338 322.128 491.288 321.384Q492.238 320.641 493.208 319.925Q494.179 319.209 495.17 318.522Q496.161 317.834 497.171 317.176Q498.182 316.518 499.211 315.889Q500.24 315.26 501.287 314.661Q502.334 314.062 503.398 313.494Q504.462 312.926 505.542 312.389Q506.622 311.852 507.717 311.346Q508.812 310.841 509.921 310.367C512.574 314.624 517.46 317.756 519.725 321.979Q518.682 322.32 517.65 322.694Q516.618 323.068 515.599 323.476Q514.581 323.884 513.575 324.324Q512.57 324.765 511.58 325.238Q510.59 325.712 509.616 326.217Q508.641 326.722 507.684 327.259Q506.727 327.796 505.788 328.363Q504.848 328.931 503.928 329.529Q503.008 330.127 502.107 330.754Q501.207 331.382 500.328 332.039Q499.448 332.695 498.591 333.38Q497.733 334.065 496.899 334.777Q496.064 335.49 495.253 336.229Q494.442 336.969 493.655 337.734Q492.869 338.499 492.107 339.29Q491.346 340.08 490.611 340.895Q489.876 341.71 489.168 342.549Q488.46 343.387 487.779 344.248Q487.099 345.109 486.447 345.992Q485.795 346.875 485.172 347.778Q484.549 348.682 483.956 349.605Q483.363 350.529 482.8 351.471Q482.237 352.413 481.705 353.373Q481.174 354.333 480.673 355.31Q480.173 356.287 479.705 357.279Q479.237 358.272 478.802 359.279Q478.366 360.287 477.964 361.308Q477.561 362.329 477.192 363.362Q476.823 364.396 476.488 365.441Q476.153 366.486 475.852 367.542Q475.551 368.597 475.285 369.662Q475.018 370.726 474.787 371.799Q474.555 372.872 474.359 373.952Q474.163 375.031 474.001 376.117Q473.84 377.202 473.715 378.293Q473.589 379.383 473.499 380.477Q473.409 381.57 473.354 382.667Q473.3 383.763 473.281 384.86Q473.262 385.957 473.279 387.055Q473.296 388.152 473.349 389.248Q473.402 390.344 473.491 391.438Q473.579 392.532 473.703 393.623Q473.827 394.713 473.987 395.799Q474.146 396.885 474.341 397.965Q474.536 399.045 474.766 400.118Q474.996 401.191 475.261 402.256Q475.525 403.321 475.825 404.377Q476.124 405.433 476.458 406.478Q476.791 407.524 477.159 408.558Q477.526 409.592 477.927 410.614Q478.328 411.635 478.762 412.643Q479.196 413.651 479.663 414.645Q480.129 415.638 480.628 416.616Q481.127 417.593 481.657 418.554Q482.187 419.515 482.749 420.458Q483.31 421.401 483.902 422.325Q484.494 423.249 485.115 424.154Q485.737 425.058 486.387 425.942Q487.038 426.826 487.717 427.688Q488.396 428.55 489.103 429.39Q489.81 430.229 490.544 431.045Q491.278 431.861 492.038 432.653Q492.798 433.444 493.583 434.211Q494.369 434.977 495.179 435.718C491.188 437.165 480.504 438.251 478.277 439.728Z"/>
	<path fill="white" d="M592.281 429.226C598.523 429.907 608.926 426.742 614.449 428.95Q613.812 430.038 613.143 431.106Q612.474 432.174 611.773 433.221Q611.072 434.268 610.339 435.294Q609.607 436.32 608.844 437.322Q608.08 438.325 607.287 439.305Q606.494 440.284 605.671 441.239Q604.848 442.194 603.997 443.123Q603.146 444.053 602.267 444.956Q601.388 445.86 600.483 446.736Q599.577 447.612 598.645 448.461Q597.713 449.309 596.756 450.129Q595.799 450.949 594.817 451.74Q593.835 452.53 592.83 453.29Q591.825 454.051 590.798 454.781Q589.77 455.51 588.721 456.208Q587.672 456.907 586.602 457.573Q585.532 458.239 584.442 458.872Q583.353 459.506 582.244 460.106Q581.136 460.706 580.01 461.272Q578.884 461.839 577.742 462.371Q576.599 462.903 575.441 463.4Q574.283 463.897 573.11 464.359Q571.938 464.821 570.752 465.247Q569.565 465.673 568.367 466.063Q567.169 466.453 565.959 466.807Q564.749 467.16 563.529 467.477Q562.309 467.794 561.08 468.073Q559.852 468.353 558.615 468.595Q557.378 468.838 556.134 469.043Q554.891 469.247 553.642 469.414Q552.392 469.582 551.139 469.711Q549.885 469.84 548.628 469.931C548.558 464.277 548.245 458.602 548.038 452.95Q549.636 452.773 551.224 452.52Q552.812 452.267 554.386 451.938Q555.96 451.61 557.516 451.207Q559.073 450.803 560.609 450.326Q562.144 449.849 563.655 449.299Q565.166 448.749 566.649 448.128Q568.132 447.507 569.584 446.815Q571.036 446.124 572.453 445.364Q573.87 444.604 575.249 443.778Q576.628 442.951 577.966 442.06Q579.304 441.168 580.598 440.214Q581.892 439.26 583.14 438.245Q584.387 437.23 585.584 436.156Q586.781 435.083 587.926 433.954Q589.07 432.824 590.16 431.642Q591.249 430.459 592.281 429.226Z"/>
	<path fill="#FFA07A" d="M495.179 435.718Q495.84 436.322 496.517 436.909Q497.194 437.495 497.886 438.063Q498.578 438.632 499.285 439.181Q499.992 439.731 500.713 440.261Q501.435 440.792 502.17 441.303Q502.905 441.815 503.654 442.306Q504.402 442.798 505.164 443.269Q505.925 443.741 506.699 444.192Q507.472 444.643 508.258 445.073Q509.043 445.504 509.839 445.913Q510.636 446.322 511.443 446.71Q512.25 447.098 513.067 447.465Q513.884 447.831 514.711 448.175Q515.538 448.52 516.373 448.842Q517.209 449.165 518.052 449.465Q518.896 449.765 519.747 450.043Q520.599 450.32 521.457 450.575Q522.316 450.83 523.181 451.062Q524.046 451.294 524.917 451.502Q525.788 451.711 526.664 451.897Q527.54 452.083 528.42 452.245Q529.301 452.407 530.186 452.546Q531.071 452.685 531.959 452.8Q532.847 452.915 533.738 453.007Q534.628 453.098 535.521 453.166Q536.414 453.234 537.309 453.278Q538.203 453.322 539.098 453.342Q539.994 453.362 540.889 453.359Q541.785 453.355 542.68 453.328Q543.575 453.301 544.469 453.25Q545.363 453.198 546.256 453.123Q547.148 453.049 548.038 452.95C548.245 458.602 548.558 464.277 548.628 469.931Q547.388 470.021 546.146 470.074Q544.904 470.126 543.661 470.142Q542.418 470.158 541.175 470.136Q539.932 470.115 538.69 470.057Q537.449 469.998 536.209 469.902Q534.97 469.807 533.734 469.674Q532.498 469.542 531.266 469.372Q530.035 469.203 528.809 468.997Q527.583 468.791 526.364 468.548Q525.144 468.305 523.933 468.026Q522.722 467.747 521.519 467.432Q520.316 467.117 519.124 466.767Q517.931 466.416 516.75 466.03Q515.568 465.643 514.398 465.222Q513.229 464.801 512.073 464.345Q510.916 463.889 509.774 463.398Q508.631 462.908 507.504 462.383Q506.377 461.859 505.266 461.301Q504.155 460.744 503.061 460.153Q501.968 459.562 500.892 458.939Q499.816 458.316 498.759 457.661Q497.703 457.006 496.666 456.32Q495.63 455.634 494.614 454.917Q493.598 454.2 492.605 453.454Q491.611 452.707 490.64 451.931Q489.669 451.154 488.721 450.35Q487.774 449.545 486.851 448.712Q485.928 447.879 485.03 447.019Q484.133 446.159 483.261 445.273Q482.389 444.386 481.545 443.474Q480.7 442.562 479.883 441.626Q479.066 440.689 478.277 439.728C480.504 438.251 491.188 437.165 495.179 435.718Z"/>
	<path fill="#7AFFE3" d="M523.054 326.123Q524.279 325.764 525.518 325.454Q526.757 325.145 528.007 324.887Q529.258 324.629 530.518 324.422Q531.778 324.215 533.045 324.06Q534.312 323.904 535.585 323.801Q536.857 323.697 538.133 323.646Q539.409 323.594 540.686 323.595Q541.963 323.595 543.238 323.648Q544.514 323.701 545.787 323.806Q547.059 323.911 548.326 324.067Q549.593 324.224 550.853 324.432Q552.113 324.64 553.363 324.9Q554.613 325.159 555.852 325.47Q557.09 325.78 558.315 326.141Q559.54 326.501 560.749 326.912Q561.958 327.322 563.149 327.781Q564.341 328.241 565.512 328.748Q566.684 329.256 567.834 329.811Q568.984 330.366 570.11 330.967Q571.236 331.569 572.337 332.216Q573.438 332.863 574.511 333.554Q575.585 334.245 576.629 334.98Q577.673 335.715 578.687 336.491Q579.7 337.268 580.681 338.085Q581.662 338.903 582.609 339.759Q583.555 340.616 584.466 341.511Q585.377 342.405 586.251 343.336Q587.125 344.267 587.96 345.233Q588.795 346.199 589.589 347.199Q590.384 348.198 591.138 349.229Q591.891 350.26 592.602 351.32Q593.312 352.381 593.979 353.47Q594.646 354.559 595.267 355.674Q595.889 356.789 596.465 357.929Q597.041 359.068 597.569 360.231Q598.098 361.393 598.579 362.576Q599.06 363.758 599.492 364.96Q599.924 366.161 600.307 367.38Q600.689 368.598 601.022 369.83Q601.355 371.063 601.637 372.308Q601.919 373.553 602.15 374.809Q602.381 376.065 602.561 377.329Q602.74 378.593 602.868 379.864Q602.996 381.134 603.072 382.409Q603.147 383.683 603.171 384.96Q603.195 386.236 603.167 387.513Q603.138 388.789 603.058 390.063Q602.977 391.338 602.845 392.608Q602.712 393.878 602.528 395.141Q602.344 396.404 602.108 397.659Q601.873 398.914 601.586 400.158Q601.3 401.403 600.962 402.634Q600.625 403.866 600.238 405.082Q599.851 406.299 599.414 407.499Q598.978 408.699 598.493 409.88Q598.008 411.061 597.475 412.221Q596.942 413.381 596.362 414.519Q595.782 415.656 595.156 416.769Q594.531 417.882 593.86 418.969Q593.189 420.055 592.475 421.113Q591.76 422.171 591.003 423.199Q590.246 424.228 589.447 425.224Q588.649 426.22 587.81 427.183Q586.972 428.146 586.095 429.074Q585.193 430.028 584.252 430.943Q583.311 431.859 582.333 432.734Q581.354 433.609 580.339 434.442Q579.325 435.275 578.276 436.065Q577.228 436.855 576.147 437.6Q575.066 438.345 573.955 439.044Q572.844 439.744 571.705 440.395Q570.565 441.047 569.399 441.651Q568.233 442.254 567.043 442.808Q565.853 443.362 564.641 443.866Q563.428 444.37 562.196 444.822Q560.964 445.274 559.713 445.674Q558.463 446.074 557.197 446.422Q555.931 446.769 554.651 447.063Q553.372 447.357 552.081 447.597Q550.791 447.836 549.491 448.022Q548.008 448.234 546.517 448.374Q545.026 448.515 543.53 448.583Q542.034 448.652 540.536 448.649Q539.039 448.647 537.543 448.572Q536.047 448.498 534.557 448.352Q533.066 448.205 531.584 447.988Q530.102 447.771 528.633 447.483Q527.163 447.195 525.709 446.837Q524.255 446.479 522.819 446.052Q521.384 445.625 519.97 445.129Q518.557 444.634 517.169 444.071Q515.781 443.509 514.421 442.88Q513.062 442.252 511.734 441.559Q510.406 440.867 509.113 440.111Q507.82 439.356 506.564 438.539Q505.309 437.723 504.094 436.847Q503.21 436.209 502.348 435.542Q501.486 434.874 500.648 434.176Q499.81 433.478 498.997 432.752Q498.184 432.026 497.397 431.271Q496.609 430.517 495.849 429.736Q495.088 428.954 494.355 428.147Q493.623 427.34 492.918 426.507Q492.214 425.675 491.539 424.818Q490.865 423.962 490.22 423.083Q489.576 422.203 488.962 421.302Q488.349 420.4 487.767 419.478Q487.186 418.556 486.636 417.614Q486.087 416.672 485.571 415.712Q485.055 414.751 484.573 413.773Q484.091 412.795 483.643 411.801Q483.195 410.807 482.783 409.798Q482.37 408.789 481.992 407.766Q481.615 406.743 481.273 405.708Q480.932 404.672 480.627 403.625Q480.321 402.579 480.053 401.522Q479.784 400.465 479.553 399.4Q479.321 398.334 479.127 397.261Q478.933 396.189 478.776 395.11Q478.619 394.031 478.5 392.947Q478.381 391.863 478.3 390.776Q478.219 389.688 478.176 388.599Q478.133 387.509 478.128 386.419Q478.122 385.329 478.155 384.239Q478.188 383.149 478.259 382.061Q478.33 380.973 478.438 379.888Q478.547 378.804 478.694 377.723Q478.84 376.643 479.024 375.568Q479.208 374.493 479.429 373.426Q479.651 372.358 479.909 371.299Q480.168 370.24 480.463 369.19Q480.758 368.141 481.09 367.102Q481.422 366.063 481.789 365.037Q482.157 364.011 482.56 362.998Q482.963 361.985 483.402 360.986Q483.84 359.988 484.313 359.006Q484.786 358.023 485.292 357.058Q485.799 356.092 486.339 355.145Q486.88 354.198 487.452 353.271Q488.025 352.343 488.63 351.436Q489.235 350.529 489.871 349.643Q490.507 348.758 491.174 347.895Q491.84 347.032 492.536 346.193Q493.233 345.354 493.958 344.54Q494.683 343.725 495.436 342.937Q496.189 342.148 496.969 341.387Q497.749 340.625 498.555 339.891Q499.361 339.157 500.192 338.451Q501.024 337.746 501.879 337.07Q502.734 336.394 503.613 335.748Q504.491 335.102 505.391 334.487Q506.292 333.872 507.213 333.289Q508.134 332.706 509.075 332.155Q510.016 331.604 510.976 331.087Q511.936 330.569 512.913 330.086Q513.89 329.602 514.883 329.153Q515.877 328.703 516.885 328.289Q517.893 327.874 518.916 327.495Q519.938 327.116 520.973 326.773Q522.008 326.43 523.054 326.123Z"/>
	<path fill="#FFA07A" d="M504.094 436.847Q503.21 436.209 502.348 435.542Q501.486 434.874 500.648 434.176Q499.81 433.478 498.997 432.752Q498.184 432.026 497.397 431.271Q496.609 430.517 495.849 429.736Q495.088 428.954 494.355 428.147Q493.623 427.34 492.918 426.507Q492.214 425.675 491.539 424.818Q490.865 423.962 490.22 423.083Q489.576 422.203 488.962 421.302Q488.349 420.4 487.767 419.478Q487.186 418.556 486.636 417.614Q486.087 416.672 485.571 415.712Q485.055 414.751 484.573 413.773Q484.091 412.795 483.643 411.801Q483.195 410.807 482.783 409.798Q482.37 408.789 481.992 407.766Q481.615 406.743 481.273 405.708Q480.932 404.672 480.627 403.625Q480.321 402.579 480.053 401.522Q479.784 400.465 479.553 399.4Q479.321 398.334 479.127 397.261Q478.933 396.189 478.776 395.11Q478.619 394.031 478.5 392.947Q478.381 391.863 478.3 390.776Q478.219 389.688 478.176 388.599Q478.133 387.509 478.128 386.419Q478.122 385.329 478.155 384.239Q478.188 383.149 478.259 382.061Q478.33 380.973 478.438 379.888Q478.547 378.804 478.694 377.723Q478.84 376.643 479.024 375.568Q479.208 374.493 479.429 373.426Q479.651 372.358 479.909 371.299Q480.168 370.24 480.463 369.19Q480.758 368.141 481.09 367.102Q481.422 366.063 481.789 365.037Q482.157 364.011 482.56 362.998Q482.963 361.985 483.402 360.986Q483.84 359.988 484.313 359.006Q484.786 358.023 485.292 357.058Q485.799 356.092 486.339 355.145Q486.88 354.198 487.452 353.271Q488.025 352.343 488.63 351.436Q489.235 350.529 489.871 349.643Q490.507 348.758 491.174 347.895Q491.84 347.032 492.536 346.193Q493.233 345.354 493.958 344.54Q494.683 343.725 495.436 342.937Q496.189 342.148 496.969 341.387Q497.749 340.625 498.555 339.891Q499.361 339.157 500.192 338.451Q501.024 337.746 501.879 337.07Q502.734 336.394 503.613 335.748Q504.491 335.102 505.391 334.487Q506.292 333.872 507.213 333.289Q508.134 332.706 509.075 332.155Q510.016 331.604 510.976 331.087Q511.936 330.569 512.913 330.086Q513.89 329.602 514.883 329.153Q515.877 328.703 516.885 328.289Q517.893 327.874 518.916 327.495Q519.938 327.116 520.973 326.773Q522.008 326.43 523.054 326.123C537.713 344.31 544.828 366.711 542.307 390.105Q542.209 391.035 542.062 391.958C537.093 387.157 530.72 379.258 523.325 379.194C519.762 379.163 516.423 380.957 513.983 383.479C511.845 385.688 510.59 388.502 510.73 391.601C510.827 393.757 511.566 395.329 512.79 397.075C517.291 403.496 524.08 408.737 529.64 414.237C533.243 417.801 536.627 421.825 540.481 425.107C542.601 426.912 543.824 427.167 546.58 427.065L546.065 429.008L547.146 430.799C547.493 436.216 547.465 441.988 548.518 447.306L549.491 448.022Q548.008 448.234 546.517 448.374Q545.026 448.515 543.53 448.583Q542.034 448.652 540.536 448.649Q539.039 448.647 537.543 448.572Q536.047 448.498 534.557 448.352Q533.066 448.205 531.584 447.988Q530.102 447.771 528.633 447.483Q527.163 447.195 525.709 446.837Q524.255 446.479 522.819 446.052Q521.384 445.625 519.97 445.129Q518.557 444.634 517.169 444.071Q515.781 443.509 514.421 442.88Q513.062 442.252 511.734 441.559Q510.406 440.867 509.113 440.111Q507.82 439.356 506.564 438.539Q505.309 437.723 504.094 436.847Z"/>
	<path fill="#FFA07A" d="M546.065 429.008L547.146 430.799C547.493 436.216 547.465 441.988 548.518 447.306L549.491 448.022Q548.008 448.234 546.517 448.374Q545.026 448.515 543.53 448.583Q542.034 448.652 540.536 448.649Q539.039 448.647 537.543 448.572Q536.047 448.498 534.557 448.352Q533.066 448.205 531.584 447.988Q530.102 447.771 528.633 447.483Q527.163 447.195 525.709 446.837Q524.255 446.479 522.819 446.052Q521.384 445.625 519.97 445.129Q518.557 444.634 517.169 444.071Q515.781 443.509 514.421 442.88Q513.062 442.252 511.734 441.559Q510.406 440.867 509.113 440.111Q507.82 439.356 506.564 438.539Q505.309 437.723 504.094 436.847C506.389 434.605 514.962 434.693 518.309 434.375C524.441 433.792 542.421 433.42 546.065 429.008Z"/>
	<path d="M542.062 391.958C543.216 392.85 543.469 393.198 544.958 393.326C553.478 389.105 555.116 356.064 574.887 362.599C578.169 363.684 581.008 365.527 582.521 368.729C584.353 372.606 583.751 377.418 582.157 381.264C579.225 388.34 573.26 394.979 568.903 401.318C564.198 408.163 559.693 415.8 554.37 422.149C553.041 423.734 551.356 425.419 549.404 426.204C548.501 426.568 547.522 426.826 546.58 427.065C543.824 427.167 542.601 426.912 540.481 425.107C536.627 421.825 533.243 417.801 529.64 414.237C524.08 408.737 517.291 403.496 512.79 397.075C511.566 395.329 510.827 393.757 510.73 391.601C510.59 388.502 511.845 385.688 513.983 383.479C516.423 380.957 519.762 379.163 523.325 379.194C530.72 379.258 537.093 387.157 542.062 391.958Z"/>
	<path fill="#7AFFE3" d="M543.145 398.455C543.314 398.465 543.482 398.477 543.65 398.484C546.099 398.592 547.465 398.164 549.246 396.439C555.985 389.907 559.844 367.04 569.773 366.77C572.253 366.702 575.359 367.393 577.123 369.263C578.474 370.695 578.827 372.638 578.691 374.54C578.496 377.27 577.429 379.841 576.108 382.207C573.517 386.847 569.988 390.74 566.983 395.078C562.204 401.977 554.484 416.181 548.454 421.131C547.515 421.902 546.264 422.655 544.996 422.48C543.829 422.32 543.011 421.694 542.19 420.913C543.029 413.49 542.733 405.918 543.145 398.455Z"/>
	<path fill="#FFA07A" d="M542.19 420.913C537.357 414.935 518.512 398.22 516.548 393.323C515.837 391.55 516.127 387.987 517.131 386.355C517.836 385.207 518.528 384.67 519.834 384.328C527.333 382.362 536.794 394.307 542.425 397.989L543.145 398.455C542.733 405.918 543.029 413.49 542.19 420.913Z"/>
	<path fill="white" d="M547.146 430.799C557.291 430.417 577.294 427.312 586.095 429.074Q585.193 430.028 584.252 430.943Q583.311 431.859 582.333 432.734Q581.354 433.609 580.339 434.442Q579.325 435.275 578.276 436.065Q577.228 436.855 576.147 437.6Q575.066 438.345 573.955 439.044Q572.844 439.744 571.705 440.395Q570.565 441.047 569.399 441.651Q568.233 442.254 567.043 442.808Q565.853 443.362 564.641 443.866Q563.428 444.37 562.196 444.822Q560.964 445.274 559.713 445.674Q558.463 446.074 557.197 446.422Q555.931 446.769 554.651 447.063Q553.372 447.357 552.081 447.597Q550.791 447.836 549.491 448.022L548.518 447.306C547.465 441.988 547.493 436.216 547.146 430.799Z"/>
	<path fill="white" d="M620.574 427.705C636.885 426.351 653.732 426.633 670.09 426.859L735.425 428.33C750.587 428.725 765.789 429.638 780.957 429.299C793.688 429.015 806.261 427.666 818.887 426.133L818.915 467.355C818.911 473.432 817.963 483.297 819.383 488.779L819.373 530.213C818.735 532.948 818.861 535.734 818.88 538.522C803.213 541.595 793.279 547.802 779.308 554.731C779.384 543.911 780.675 527.934 772.341 519.833C768.795 516.386 764.146 515.291 759.355 514.872C750.211 514.072 740.584 514.945 731.407 515.179L690.004 515.89Q617.674 517.483 545.327 517.547C546.386 510.978 548 504.511 548.599 497.867C549.202 491.173 548.721 484.659 548.936 477.997C548.986 476.424 548.975 475.673 550.167 474.619Q551.541 474.5 552.91 474.337Q554.28 474.175 555.643 473.97Q557.007 473.764 558.364 473.517Q559.72 473.269 561.068 472.979Q562.417 472.689 563.755 472.356Q565.094 472.024 566.421 471.65Q567.748 471.276 569.063 470.861Q570.378 470.446 571.68 469.989Q572.981 469.533 574.268 469.036Q575.554 468.539 576.824 468.002Q578.094 467.466 579.347 466.889Q580.6 466.313 581.834 465.698Q583.069 465.082 584.283 464.429Q585.497 463.775 586.69 463.084Q587.884 462.392 589.055 461.664Q590.226 460.935 591.373 460.171Q592.521 459.406 593.644 458.606Q594.767 457.806 595.865 456.971Q596.962 456.136 598.033 455.267Q599.104 454.398 600.147 453.495Q601.19 452.593 602.204 451.659Q603.219 450.725 604.203 449.759Q605.188 448.794 606.142 447.798Q607.096 446.802 608.018 445.776Q608.94 444.751 609.83 443.697Q610.719 442.644 611.575 441.563Q612.432 440.482 613.254 439.374Q614.076 438.267 614.862 437.134Q615.649 436.002 616.4 434.845Q617.151 433.689 617.866 432.509Q618.58 431.33 619.258 430.128Q619.935 428.927 620.574 427.705Z"/>
	<path d="M662.984 465.078C672.841 464.721 789.892 464.847 791.005 465.25C792.358 465.74 792.486 465.962 793.107 467.162C792.965 468.489 792.524 468.978 791.67 469.976C761.256 470.358 730.759 469.984 700.341 469.856L675.191 469.717C671.724 469.693 667.602 470.124 664.23 469.488C662.877 469.232 662.375 468.869 661.584 467.787C661.808 466.296 661.949 466.196 662.984 465.078Z"/>
	<path d="M664.812 371.748C700.937 371.384 737.102 372.332 773.24 372.088C777.102 372.062 788.628 370.86 791.645 372.298C792.943 372.917 793.088 373.231 793.64 374.463C793.555 375.838 793.303 377.129 792.436 378.256C791.54 379.421 790.228 379.509 788.876 379.734C778.764 380.135 768.498 379.627 758.366 379.548L703.086 379.294L676.358 379.289C672.393 379.308 667.412 379.978 663.57 379.189C661.952 378.856 661.282 378.274 660.381 376.935C660.295 375.703 660.4 374.402 661.226 373.397C662.394 371.977 663.136 372.056 664.812 371.748Z"/>
	<path d="M778.93 416.239L783.089 416.091C786.216 415.991 790.213 415.336 792.683 417.652C793.067 418.87 793.097 418.995 792.747 420.216C791.819 420.971 791.044 421.301 789.837 421.394C787.422 421.58 784.922 421.12 782.485 421.161Q768.994 421.441 755.5 421.454L676.375 421.751C672.43 421.867 664.009 423.119 660.816 420.574C660.475 419.14 660.699 419.064 661.382 417.728C662.374 416.842 663.25 416.659 664.537 416.548C667.896 416.256 671.499 416.605 674.886 416.609L700.072 416.598L778.93 416.239Z"/>
	<path fill="#7AFFE3" d="M163.922 279.221C188.304 266.529 213.486 261.789 240.184 270.313C264.223 277.988 283.524 295.626 294.88 317.998C297.975 324.095 300.105 330.168 301.682 336.811C305.708 361.216 303.787 379.518 291.918 401.56C289.039 406.304 286.017 410.27 282.115 414.223C281.122 409.97 280.047 405.772 278.816 401.582C275.299 390.614 270.127 382.099 262.122 373.84Q259.227 370.921 256.134 368.213C243.52 357.351 225.288 350.584 208.583 351.774C208.702 350.602 209.031 349.131 208.555 348.025C208.24 347.292 206.341 346.941 205.578 346.681Q204.937 346.601 204.3 346.495Q203.663 346.389 203.031 346.256Q202.399 346.124 201.773 345.965Q201.147 345.806 200.528 345.621Q199.909 345.437 199.299 345.227Q198.688 345.017 198.087 344.781Q197.485 344.546 196.894 344.286Q196.303 344.026 195.723 343.741Q195.144 343.457 194.576 343.148Q194.009 342.84 193.454 342.508Q192.9 342.177 192.36 341.823Q191.82 341.468 191.296 341.092Q190.771 340.715 190.262 340.317Q189.754 339.919 189.262 339.501Q188.77 339.082 188.296 338.643Q187.823 338.204 187.367 337.746Q186.912 337.288 186.476 336.812Q186.041 336.335 185.625 335.841Q185.209 335.346 184.815 334.835Q184.42 334.324 184.047 333.797Q183.674 333.27 183.323 332.728Q182.972 332.186 182.644 331.63Q182.315 331.073 182.011 330.504Q181.706 329.935 181.425 329.353Q181.144 328.771 180.888 328.179Q180.631 327.586 180.4 326.983Q180.168 326.38 179.962 325.768Q179.756 325.156 179.575 324.536Q179.394 323.916 179.239 323.289Q179.084 322.662 178.956 322.03Q178.827 321.397 178.725 320.759Q178.623 320.121 178.547 319.48L178.032 318.889C170.167 309.96 165.416 290.904 163.922 279.221Z"/>
	<path d="M178.547 319.48Q178.477 318.883 178.429 318.283Q178.382 317.683 178.358 317.082Q178.334 316.481 178.333 315.88Q178.332 315.278 178.354 314.677Q178.377 314.076 178.423 313.477Q178.468 312.877 178.537 312.279Q178.606 311.682 178.698 311.087Q178.79 310.493 178.905 309.903Q179.02 309.312 179.157 308.727Q179.295 308.141 179.455 307.561Q179.615 306.982 179.798 306.408Q179.98 305.835 180.185 305.27Q180.389 304.704 180.615 304.147Q180.841 303.589 181.089 303.041Q181.337 302.493 181.605 301.955Q181.874 301.417 182.163 300.889Q182.453 300.362 182.762 299.846Q183.072 299.33 183.401 298.827Q183.73 298.324 184.078 297.833Q184.427 297.343 184.794 296.867Q185.161 296.39 185.546 295.928Q185.932 295.466 186.334 295.02Q186.737 294.573 187.157 294.142Q187.577 293.712 188.013 293.298Q188.449 292.883 188.901 292.486Q189.353 292.089 189.82 291.71Q190.287 291.331 190.768 290.97Q191.249 290.609 191.744 290.268Q192.239 289.926 192.747 289.603Q193.255 289.281 193.774 288.978Q194.294 288.675 194.825 288.393Q195.356 288.111 195.898 287.849Q196.44 287.587 196.991 287.347Q197.542 287.107 198.103 286.888Q198.663 286.669 199.231 286.472Q199.799 286.275 200.375 286.1Q200.95 285.925 201.532 285.772Q202.114 285.62 202.701 285.49Q203.289 285.36 203.88 285.253Q204.472 285.146 205.068 285.062Q205.663 284.978 206.262 284.917Q206.86 284.856 207.46 284.818Q208.061 284.78 208.662 284.766Q209.263 284.751 209.865 284.76Q210.466 284.769 211.067 284.801Q211.667 284.833 212.266 284.888Q212.865 284.943 213.462 285.022Q214.058 285.1 214.651 285.201Q215.244 285.303 215.832 285.427Q216.421 285.551 217.004 285.698Q217.587 285.845 218.164 286.014Q218.742 286.184 219.312 286.375Q219.882 286.567 220.444 286.78Q221.007 286.994 221.56 287.229Q222.114 287.464 222.658 287.72Q223.202 287.977 223.736 288.254Q224.27 288.531 224.792 288.829Q225.315 289.126 225.826 289.444Q226.337 289.761 226.835 290.099Q227.333 290.436 227.818 290.792Q228.302 291.148 228.773 291.523Q229.243 291.897 229.699 292.29Q230.155 292.682 230.595 293.092Q231.035 293.502 231.459 293.929Q231.883 294.356 232.29 294.798Q232.697 295.241 233.087 295.699Q233.477 296.157 233.848 296.63Q234.22 297.103 234.573 297.59Q234.926 298.077 235.26 298.577Q235.595 299.077 235.909 299.59Q236.223 300.103 236.518 300.627Q236.812 301.152 237.086 301.687Q237.36 302.223 237.613 302.769Q237.866 303.314 238.097 303.869Q238.329 304.424 238.539 304.988Q238.749 305.552 238.937 306.123Q239.125 306.694 239.291 307.273Q239.456 307.851 239.6 308.435Q239.743 309.019 239.863 309.608Q239.984 310.198 240.082 310.791Q240.179 311.385 240.254 311.981Q240.328 312.578 240.38 313.178Q240.431 313.777 240.46 314.378Q240.488 314.978 240.493 315.58Q240.498 316.181 240.48 316.783Q240.461 317.384 240.42 317.984Q240.378 318.584 240.314 319.182Q240.249 319.78 240.161 320.375Q240.073 320.97 239.963 321.561Q239.852 322.152 239.718 322.739Q239.585 323.325 239.429 323.906Q239.272 324.487 239.094 325.061Q238.915 325.636 238.715 326.203Q238.514 326.77 238.292 327.329Q238.07 327.887 237.826 328.437Q237.582 328.987 237.317 329.527Q237.052 330.067 236.766 330.596Q236.481 331.126 236.175 331.644Q235.869 332.162 235.543 332.667Q235.218 333.173 234.873 333.666Q234.528 334.158 234.164 334.637Q233.8 335.116 233.418 335.581Q233.036 336.045 232.636 336.495Q232.236 336.944 231.819 337.378Q231.403 337.812 230.969 338.229Q230.536 338.646 230.087 339.046Q229.638 339.446 229.173 339.828Q228.709 340.211 228.23 340.575Q227.752 340.939 227.259 341.285Q226.767 341.63 226.261 341.956Q225.756 342.282 225.238 342.588Q224.72 342.895 224.191 343.181Q223.662 343.467 223.122 343.732Q222.582 343.997 222.033 344.241Q221.483 344.486 220.924 344.708Q220.366 344.931 219.799 345.132Q219.232 345.333 218.657 345.512Q218.083 345.691 217.502 345.847Q216.922 346.004 216.335 346.138Q215.749 346.272 215.158 346.383Q214.567 346.494 213.972 346.582Q213.377 346.671 212.779 346.736Q212.181 346.801 211.581 346.843Q210.981 346.885 210.379 346.904Q209.778 346.922 209.177 346.918Q208.575 346.913 207.974 346.885Q207.374 346.857 206.774 346.806Q206.175 346.755 205.578 346.681Q204.937 346.601 204.3 346.495Q203.663 346.389 203.031 346.256Q202.399 346.124 201.773 345.965Q201.147 345.806 200.528 345.621Q199.909 345.437 199.299 345.227Q198.688 345.017 198.087 344.781Q197.485 344.546 196.894 344.286Q196.303 344.026 195.723 343.741Q195.144 343.457 194.576 343.148Q194.009 342.84 193.454 342.508Q192.9 342.177 192.36 341.823Q191.82 341.468 191.296 341.092Q190.771 340.715 190.262 340.317Q189.754 339.919 189.262 339.501Q188.77 339.082 188.296 338.643Q187.823 338.204 187.367 337.746Q186.912 337.288 186.476 336.812Q186.041 336.335 185.625 335.841Q185.209 335.346 184.815 334.835Q184.42 334.324 184.047 333.797Q183.674 333.27 183.323 332.728Q182.972 332.186 182.644 331.63Q182.315 331.073 182.011 330.504Q181.706 329.935 181.425 329.353Q181.144 328.771 180.888 328.179Q180.631 327.586 180.4 326.983Q180.168 326.38 179.962 325.768Q179.756 325.156 179.575 324.536Q179.394 323.916 179.239 323.289Q179.084 322.662 178.956 322.03Q178.827 321.397 178.725 320.759Q178.623 320.121 178.547 319.48Z"/>
	<path fill="#7AFFE3" d="M183.843 321.03C182.599 313.792 184.77 304.935 189.031 299.046Q189.379 298.555 189.752 298.082Q190.124 297.609 190.52 297.156Q190.916 296.702 191.335 296.27Q191.753 295.837 192.193 295.426Q192.633 295.015 193.093 294.627Q193.554 294.239 194.033 293.875Q194.512 293.51 195.009 293.171Q195.507 292.832 196.02 292.518Q196.534 292.204 197.063 291.917Q197.592 291.629 198.135 291.369Q198.678 291.109 199.233 290.877Q199.789 290.645 200.355 290.441Q200.922 290.237 201.498 290.063Q202.074 289.888 202.658 289.743Q203.242 289.597 203.833 289.482Q204.424 289.366 205.02 289.281C211.498 288.343 218.277 289.844 223.524 293.822C228.328 297.465 231.167 302.758 231.89 308.708C232.837 316.487 230.88 325.547 226.026 331.768C221.671 337.349 214.323 341.549 207.291 342.196C206.499 342.269 205.781 342.244 204.995 342.127C200.405 341.627 195.872 339.918 192.291 336.965C187.565 333.066 184.515 327.095 183.843 321.03Z"/>
	<path fill="white" d="M183.843 321.03C185.678 321.56 188.21 325.775 189.523 327.329C193.912 332.524 198.728 336.918 204.412 340.654C204.604 341.115 204.881 341.644 204.995 342.127C200.405 341.627 195.872 339.918 192.291 336.965C187.565 333.066 184.515 327.095 183.843 321.03Z"/>
	<path fill="#FFA07A" d="M301.682 336.811C305.708 361.216 303.787 379.518 291.918 401.56C289.039 406.304 286.017 410.27 282.115 414.223C281.122 409.97 280.047 405.772 278.816 401.582C275.299 390.614 270.127 382.099 262.122 373.84C273.5 360.097 287.324 347.402 301.682 336.811Z"/>
	<path fill="#FFA07A" d="M278.816 401.582C283.228 401.911 287.507 401.714 291.918 401.56C289.039 406.304 286.017 410.27 282.115 414.223C281.122 409.97 280.047 405.772 278.816 401.582Z"/>
	<path fill="white" d="M211.539 358.277C226.723 357.268 240.872 361.034 252.503 371.193C254.718 373.127 256.948 375.18 258.836 377.442C264.203 384.051 267.283 390.652 270.398 398.5C273.261 406.185 274.663 413.46 275.289 421.62C254.297 439.611 234.267 450.548 205.752 448.858C204.967 448.812 204.235 448.701 203.46 448.574C193.499 448.488 175.539 444.879 167.483 439.043C166.661 437.565 166.928 435.554 166.95 433.892C166.958 428.824 168.435 416.123 166.553 412.117C166.112 411.18 166.088 411.155 165.082 410.794C164.014 411.176 163.807 411.394 163.045 412.181C161.685 416.271 162.21 424.305 162.428 428.778C162.163 431.273 162.165 433.827 162.068 436.336C160.031 435.273 158.092 433.972 156.138 432.762C155.553 412.558 156.37 394.92 170.411 378.924C180.756 367.139 195.887 359.345 211.539 358.277Z"/>
	<path fill="#FFA07A" d="M258.836 377.442C264.203 384.051 267.283 390.652 270.398 398.5C273.261 406.185 274.663 413.46 275.289 421.62C254.297 439.611 234.267 450.548 205.752 448.858C204.967 448.812 204.235 448.701 203.46 448.574C205.687 448.459 207.942 448.526 210.173 448.522C218.81 432.832 227.868 417.971 237.975 403.198C241.157 398.546 244.207 393.477 247.936 389.247L247.846 389.045C251.103 384.773 254.496 380.664 258.836 377.442Z"/>
	<path fill="#FFA07A" d="M258.836 377.442C264.203 384.051 267.283 390.652 270.398 398.5C262.752 397.062 254.884 392.728 247.936 389.247L247.846 389.045C251.103 384.773 254.496 380.664 258.836 377.442Z"/>
	<path fill="#7AFFE3" d="M211.539 358.277C226.723 357.268 240.872 361.034 252.503 371.193C254.718 373.127 256.948 375.18 258.836 377.442C254.496 380.664 251.103 384.773 247.846 389.045C234.364 379.974 222.937 369.846 211.539 358.277Z"/>
	<path fill="#7AFFE3" d="M837.42 425.635C836.831 420.48 837.043 415.129 836.973 409.939L836.612 382.552L835.062 307.123C834.916 296.392 835.859 285.099 834.67 274.479C834.36 271.708 833.727 269.397 832.273 266.993C829.469 262.359 825.202 258.523 819.663 257.798C810.022 256.535 791.104 258.266 780.699 258.44Q737.767 258.759 694.843 259.607L416.466 263.837L367.641 264.598C362.17 264.73 343.648 266.147 339.515 265.133C339.159 264.553 338.984 264.094 338.949 263.407C338.843 261.34 339.297 259.324 340.763 257.795C342.994 255.468 346.627 254.951 349.694 254.899L693.646 249.513L778.994 248.082C795.752 247.707 812.929 246.604 829.662 247.408C833.348 247.585 836.08 248.043 838.765 250.733C840.928 252.901 842.513 255.833 842.927 258.88C843.772 265.097 843.433 271.57 843.454 277.834Q843.457 292.603 843.687 307.369L845.7 419.749C843.955 420.045 842.213 420.284 840.466 420.55C839.38 420.716 838.889 421.036 838.023 421.672C837.351 422.949 837.444 424.232 837.42 425.635Z"/>
	<path fill="white" d="M150.944 429.091C142.908 421.491 135.581 413.492 129.914 403.924Q129.361 402.992 128.831 402.046Q128.301 401.101 127.794 400.143Q127.287 399.185 126.803 398.215Q126.32 397.245 125.86 396.263Q125.4 395.282 124.965 394.289Q124.529 393.297 124.118 392.294Q123.706 391.291 123.32 390.278Q122.933 389.266 122.571 388.244Q122.209 387.222 121.872 386.192Q121.535 385.162 121.224 384.124Q120.912 383.086 120.626 382.04Q120.34 380.995 120.079 379.943Q119.818 378.891 119.583 377.832Q119.348 376.774 119.139 375.711Q118.93 374.647 118.747 373.579Q118.564 372.511 118.407 371.438Q118.25 370.366 118.119 369.29Q117.988 368.214 117.884 367.135Q117.779 366.056 117.701 364.975Q117.623 363.894 117.571 362.811Q117.519 361.728 117.494 360.645Q117.469 359.561 117.47 358.477Q117.471 357.393 117.498 356.31Q117.526 355.226 117.579 354.144Q117.633 353.061 117.714 351.98Q117.794 350.899 117.9 349.821Q118.007 348.742 118.14 347.666Q118.273 346.591 118.432 345.518Q118.591 344.446 118.776 343.378Q118.961 342.31 119.172 341.247Q119.383 340.184 119.62 339.126Q119.857 338.069 120.12 337.017C126.46 312.391 142.119 292.185 163.922 279.221C165.416 290.904 170.167 309.96 178.032 318.889L178.547 319.48Q178.623 320.121 178.725 320.759Q178.827 321.397 178.956 322.03Q179.084 322.662 179.239 323.289Q179.394 323.916 179.575 324.536Q179.756 325.156 179.962 325.768Q180.168 326.38 180.4 326.983Q180.631 327.586 180.888 328.179Q181.144 328.771 181.425 329.353Q181.706 329.935 182.011 330.504Q182.315 331.073 182.644 331.63Q182.972 332.186 183.323 332.728Q183.674 333.27 184.047 333.797Q184.42 334.324 184.815 334.835Q185.209 335.346 185.625 335.841Q186.041 336.335 186.476 336.812Q186.912 337.288 187.367 337.746Q187.823 338.204 188.296 338.643Q188.77 339.082 189.262 339.501Q189.754 339.919 190.262 340.317Q190.771 340.715 191.296 341.092Q191.82 341.468 192.36 341.822Q192.9 342.177 193.454 342.508Q194.009 342.84 194.576 343.148Q195.144 343.457 195.723 343.741Q196.303 344.026 196.894 344.286Q197.485 344.546 198.087 344.781Q198.688 345.017 199.299 345.227Q199.909 345.437 200.528 345.621Q201.147 345.806 201.773 345.965Q202.399 346.124 203.031 346.256Q203.663 346.389 204.3 346.495Q204.937 346.601 205.578 346.681C206.341 346.941 208.24 347.292 208.555 348.025C209.031 349.131 208.702 350.602 208.583 351.774C193.544 353.271 180.178 359.527 169.481 370.245C153.028 386.731 150.855 406.907 150.944 429.091Z"/>
	<path fill="#7AFFE3" d="M818.88 538.522C818.861 535.734 818.735 532.948 819.373 530.213L819.529 577.886C819.552 585.389 820.223 593.545 819.425 600.981C819.276 602.374 819.041 603.321 817.996 604.322C816.742 605.523 815.214 605.976 813.534 606.238C809.645 606.845 805.37 606.459 801.43 606.433L779.928 606.462C779.443 589.319 778.593 571.859 779.308 554.731C793.279 547.802 803.213 541.595 818.88 538.522Z"/>
	<path fill="#FFA07A" d="M306.948 381.431C306.364 393.548 306.853 405.742 306.898 417.871L306.912 476.998C306.91 486.551 307.706 500.729 306.754 509.888C307.302 514.775 307.852 517.87 311.777 521.211C306.347 521.339 300.897 521.245 295.464 521.239C294.938 495.608 295.263 469.92 295.263 444.283C295.263 436.01 294.277 416.304 295.865 409.709C297.471 406.695 297.545 403.448 298.731 400.324C301.209 393.798 305.099 388.307 306.948 381.431Z"/>
	<path fill="#FFA07A" d="M306.948 381.431C306.364 393.548 306.853 405.742 306.898 417.871L306.912 476.998C306.91 486.551 307.706 500.729 306.754 509.888C305.813 508.135 306.339 420.411 306.34 410.076C302.833 409.825 299.381 409.659 295.865 409.709C297.471 406.695 297.545 403.448 298.731 400.324C301.209 393.798 305.099 388.307 306.948 381.431Z"/>
	<path fill="white" d="M837.42 425.635C837.444 424.232 837.351 422.949 838.023 421.672C838.889 421.036 839.38 420.716 840.466 420.55C842.213 420.284 843.955 420.045 845.7 419.749C846.465 457.956 847.352 496.251 847.538 534.461C844.649 533.849 841.721 533.785 838.781 533.898C837.849 497.84 837.726 461.705 837.42 425.635Z"/>
	<path fill="#7AFFE3" d="M838.781 533.898C841.721 533.785 844.649 533.849 847.538 534.461C847.642 544.497 849.727 592.369 847.203 598.732C845.772 602.34 842.462 603.521 839.131 604.795C839.631 593.862 839.339 582.843 839.255 571.899Q839.219 552.896 838.781 533.898Z"/>
	<path fill="white" d="M774.952 627.304C775.279 627.659 775.538 627.855 775.713 628.29C776.294 629.733 777.022 754.675 776.847 764.592C776.759 769.626 777.163 776.11 775.49 780.852C774.457 783.776 772.925 786.502 770.231 788.167C759.421 794.847 719.906 787.483 710.73 792.381C709.982 792.78 709.769 792.952 708.908 793.067L709.657 791.251C702.665 793.668 710.68 846.193 704.361 855.277C702.559 857.867 699.513 858.299 696.618 858.719L693.372 858.03L694.134 858.066L693.261 857.894C695.925 858.118 698.646 857.95 700.987 856.525C702.772 855.438 704.003 853.665 704.619 851.687C706.81 844.651 705.571 815.692 705.565 806.519C705.562 802.358 705.12 797.232 706.389 793.226C707.012 791.261 708.695 789.998 710.621 789.448C714.236 788.418 718.28 789.002 721.989 789.007C730.256 789.018 764.419 790.625 769.652 787.195C772.065 785.613 773.068 781.371 773.533 778.715C775.494 767.496 774.53 749.273 774.549 737.468L774.569 658.942C774.557 650.935 773.638 635.281 774.774 628.312C774.829 627.975 774.893 627.64 774.952 627.304Z"/>
	<path fill="white" d="M417.189 782.844C437.552 782.171 458.048 782.672 478.426 782.657C505.54 782.636 532.938 782.28 560.021 783.441L560.008 786.518C544.797 787.009 529.446 786.62 514.22 786.555Q465.879 786.355 417.547 785.434L417.189 782.844Z"/>
	<path fill="#FFA07A" d="M204.961 769.909C206.488 772.993 207.807 776.439 210.327 778.86C212.925 781.356 216.187 781.935 219.638 782.289C226.483 782.993 233.576 782.647 240.468 782.757Q264.806 783.147 289.147 783.084C331.811 783.161 374.53 783.426 417.189 782.844L417.547 785.434C405.019 784.629 392.248 784.921 379.69 784.73Q332.303 784.169 284.915 784.667C263.919 784.89 242.676 785.597 221.701 784.95C218.776 784.86 214.298 784.89 211.77 783.389C206.935 780.519 206.041 774.943 204.961 769.909Z"/>
	<path fill="#FFA07A" d="M311.035 401.692L311.985 401.972C311.358 407.638 311.868 413.828 311.898 419.543L312.208 456.692L312.263 491.007C312.232 496.989 311.031 508.237 312.534 513.625C313.419 516.797 316.383 518.393 319.039 519.901C327.522 520.47 336.425 519.598 344.954 519.492C357.689 519.333 454.413 518.577 457.456 519.766C428.273 520.665 399.163 520.871 369.968 521.021C352.438 521.111 334.826 521.559 317.306 521.003C317.17 520.884 317.031 520.768 316.899 520.646C314.532 518.455 312.532 516.245 311.833 513.017C310.303 505.957 311.676 495.427 311.608 487.878Q311.168 463.201 311.181 438.52C311.184 426.29 311.611 413.902 311.035 401.692Z"/>
	<path fill="white" d="M752.496 518.756L753.15 518.734C759.168 518.569 765.9 518.972 770.392 523.504C773.174 526.31 774.233 530.655 774.821 534.465C776.206 543.431 775.478 552.956 775.578 562.023C775.746 577.224 776.184 592.411 775.831 607.615C773.504 605.58 777.936 541.581 769.32 527.124C765.112 520.064 760.03 520.963 753.244 518.985C752.994 518.912 752.745 518.833 752.496 518.756Z"/>
	<path fill="#7AFFE3" d="M560.021 783.441L587.564 783.536C594.298 783.556 601.362 782.937 607.97 784.435C612.339 785.425 615.991 787.236 619.43 790.126L619.249 790.549L618.765 790.208C615.73 788.111 612.358 786.735 608.69 786.233C603.642 785.541 598.06 786.072 592.954 786.104Q576.48 786.192 560.008 786.518L560.021 783.441Z"/>
	<path d="M311.035 401.692C310.497 397.356 309.865 375.272 312.081 372.16C313.12 376.295 312.497 397.13 311.985 401.972L311.035 401.692Z"/>
</svg>
